<?xml version="1.0" encoding="UTF-8"?>
<svg xmlns="http://www.w3.org/2000/svg" version="1.1" xmlns:xlink="http://www.w3.org/1999/xlink" viewBox="0 0 51 50">
  <!-- Generator: Adobe Illustrator 29.3.1, SVG Export Plug-In . SVG Version: 2.1.0 Build 151)  -->
  <defs>
    <style>
      .st0 {
        stroke-width: .5px;
      }

      .st0, .st1 {
        fill: none;
        stroke: #001a63;
        stroke-miterlimit: 10;
      }

      .st1 {
        stroke-width: .1px;
      }

      .st2 {
        fill: #001a63;
      }

      .st3 {
        fill: #001374;
        font-family: NotoNaskhArabic-Bold, 'Noto Naskh Arabic';
        font-size: 3px;
        font-weight: 700;
      }
    </style>
    <path id="path" d="M23.2,6.8c-10.9.9-18.9,10.6-17.9,21.5.9,10.9,10.6,18.9,21.5,17.9,10.9-.9,18.8-10.5,17.9-21.4-.9-11-10.6-19-21.5-18.1"/>
  </defs>
  <g id="Layer_1">
    <polygon class="st0" points="36.7 9.2 36.7 9.2 36.7 9.2 36.7 9.2"/>
    <polygon class="st2" points="12.9 10.4 13.5 10.4 13.6 10 13 10 12.9 10.4"/>
    <path class="st2" d="M15.1,8c0-.1,0-.2,0-.4,0-.2,0-.4-.2-.5,0-.1-.1-.2-.2-.3,0,0-.2-.1-.3-.2v.6c0,0,.2,0,.3.2l-1.1.7-.5-.4v.6c0,0,.2.1.2.1l-1.2,1c0,0-.1.1-.2.1,0,0-.1,0-.2,0-.1,0-.3,0-.4-.2,0,0-.1-.2-.2-.3,0,0,0,0,0,.1v.3c0,.2.2.4.3.5,0,.1.2.2.3.2.1,0,.2,0,.3,0h.1c0,0,.1-.2.1-.2l1.3-1.1v-.3h.2"/>
    <path class="st2" d="M15.8,8.6h.1c.1,0,.2,0,.3,0,0,0,.1-.1.2-.2,0-.1,0-.2.1-.4,0-.2,0-.4,0-.5,0-.2,0-.3-.2-.4,0-.1-.1-.2-.2-.3-.1-.1-.3-.2-.4-.3v.6c-.1,0,0,0,0,0h.1c0,0,.2.2.2.2,0,0,0,0,.1.1h0c0,0,0,.2,0,.3,0,0,0,.2,0,.2,0,.2-.2.3-.3.4h-.2c0,0-.2,0-.2,0l.4.2"/>
    <polygon class="st2" points="19 4.3 19.2 4.5 19.5 4.1 19 3.9 18.8 4.1 18.5 4 18.3 4.3 18.8 4.6 19 4.3"/>
    <polygon class="st2" points="14.9 9.1 15.3 9.1 15.3 8.7 14.8 8.7 14.7 9 14.4 8.9 14.4 9.4 14.9 9.4 14.9 9.1"/>
    <path class="st2" d="M19.3,6.2v-.2c.1,0,.2.2.2.2h.7c0-.1,1-.3,1-.3,0,0,0,0,0-.1,0,0,0-.2,0-.2v-.3c0,0,0-.1,0-.2,0,0,0-.1,0-.2h0v-.2l-.2-.8h0v-.5c.1,0-.3,0-.3,0h-.1s0,0,0,0h0c0,0,0-.1,0-.1v.4c-.1,0-.1,0-.1,0,0,0,0,0,0,.1,0,0,0,0,.1,0h0l.4,1.4h-.6c0,.1-.7.3-.7.3l-.4-.6-.4.5v.2c.1,0-1,.4-1,.4l-1-.8v.6c0,0,.5.4.5.4l-.6.2h-.3c0,0,0,0-.1,0h0c0,.2,0,.3,0,.4,0,0,0,.1,0,.2,0,.1.1.2.2.2,0,0,.1,0,.2,0h.2l.8-.3v-.2h.2"/>
    <path class="st2" d="M22.3,4.3c0,0,0-.2,0-.2v-.3h0,0c0-.1-.3-.9-.3-.9l-.4.7h0c0,0,.1.6.1.6v.7c.1,0,.1.2.1.2v.2c0,0,0,.1,0,.2v.2c.1-.2.2-.4.3-.6,0-.2,0-.5,0-.7l.2-.2Z"/>
    <path class="st2" d="M24.9,4.4c0,0,0-.2-.2-.3,0-.1-.2-.2-.3-.2-.1,0-.2,0-.3.2,0,0,0,0-.1.2,0,0,0,.1,0,.2-.1.2-.2.4-.2.7,0,0,0,.2,0,.2,0,0,0,.1.2.2,0,0,.1,0,.2,0,0,0,.2,0,.3,0h.3c-.1.3-.4.4-.7.4,0,0-.2,0-.3,0h0c0,0,.1.2.2.2l.2.2c0,0,.2.1.3.1.1,0,.2,0,.3-.2.2-.2.3-.4.4-.6,0-.2.1-.4.1-.6,0-.1,0-.3,0-.4,0-.1-.1-.2-.2-.3ZM24.4,4.9h0c-.1,0-.2,0-.2-.2,0,0,0,0,0,0,0,0,0-.1,0-.2,0,0,0,0,.1,0,.1,0,.2.1.2.5h-.2Z"/>
    <polygon class="st2" points="29.5 6.8 29.3 6.5 28.9 6.7 29.2 7.2 29.5 7.1 29.7 7.3 30 7.1 29.8 6.6 29.5 6.8"/>
    <polygon class="st2" points="36 7.2 36.1 7.5 36.6 7.4 36.4 6.8 36.1 6.9 36 6.6 35.6 6.7 35.8 7.2 36 7.2"/>
    <path class="st2" d="M31.7,6.2s0,0,0,0h0c0-.1.7-1.8.7-1.8l-.7.3-.5,1.3h0l-1-.4v-.6l-.6.3v.3l-1.1-.4v-.5c.1,0,.1-.2,0-.3,0,0-.1-.1-.2-.1-.3,0-.5,0-.8,0-.2,0-.4,0-.6.1-.1,0-.3,0-.4.2,0,0-.2.2-.2.3,0,.1-.2.3-.2.4h0v.2s0,.1,0,.2v1.1c-.1,0-.1.1-.1.1l.3-.3v-.2c.2,0,.2-.1.2-.2v-1c.2,0,.3-.2.5-.2v.4c-.1,0,1,.9,1,.9l.2-.4h.5c0,.1.8.3.8.3h.2c0-.1,0,0,0,0l.8.2.4.2h0s0,0,0,0h.2c0,0,.8.4.8.4h0l.9.5h.2c0-.1,0,.1,0,.1l1,.5h0l.7.4h.2c0,0,0,.1,0,.1l.6.4.8.6h.1c0,0,.2-.2.2-.2h.2c0-.1.1-.2.1-.2h0c0-.1,0-.2,0-.2h0c0-.1.4-.7.4-.7h0c0,0,.4-.1.4-.1l-.2-.4h0c0-.1,0-.2,0-.2h0c0-.1-.4,0-.4,0h0s0,0-.1,0c0,0,0,.1,0,.2h0l-.7,1.1-1-.6.2-.7h-.5c0,.1,0,.4,0,.4h0c0,0-1.3-.9-1.3-.9h0l.3-.2h.2c0-.2,0-.2.1-.3,0-.1,0-.3,0-.4,0-.1-.2-.2-.3-.3l-.3-.2h-.4c0-.1-.6.3-.6.3h0c0,0,.1,0,.2.1,0,0,0,.1.1.2,0,0,0,0,0,.1,0,0,0,.1,0,.2M28.1,5h0c0,0-.1.4-.1.4l-.7-.5c0,0,.2,0,.2,0,.1,0,.2,0,.4,0,0,0,.1,0,.2,0,0,0,0,0,0,0Z"/>
    <path class="st2" d="M38.4,8.7h0c0,0-.4.5-.4.5l-.4.6-.2.2-.2.2-.2.2h-.2c.2.1.4,0,.6,0,.2-.1.4-.3.5-.4v-.2c.1,0,.3-.2.3-.2l.2-.2h.2l.4-.6h-.8Z"/>
    <path class="st0" d="M27.5,40.8c-.5-.9-1.1-1.6-1.9-2.3.3-.1.5-.2.8-.3,0,0,.1,0,.1-.1,0,0,0-.1,0-.2l-.3-.6c0,0-.1-.1-.2-.1-.6.1-1.2.3-1.7.6h0l-.9-.4c0,0-.2,0-.2,0l-.5.6c0,0,0,.1,0,.2,0,0,0,.1.1.1l.5.3c-.6.5-1.1,1.2-1.4,1.9,0,0,0,.1,0,.2,0,0,0,0,.1.1l.8.3h0c0,0,.1,0,.2,0,.5-.7,1-1.3,1.6-1.8h0c.7.6,1.3,1.3,1.8,2.1,0,0,.1,0,.2,0h0l.7-.3c0,0,.1,0,.1-.1,0,0,0-.1,0-.2M23.4,37.9l.4.2-.4.3h-.2c0-.1.2-.4.2-.4ZM22.7,40.7l-.4-.2c.8-1.4,2.1-2.5,3.7-2.9v.3c-1.3.5-2.5,1.5-3.3,2.8M26.7,41c-.4-.7-1-1.3-1.6-1.8l.3-.2c.6.5,1.2,1.1,1.6,1.8h-.3Z"/>
    <path class="st1" d="M22.3,37.6s0,0,.1,0h0s0,0,.1,0h.2c0,.1.1.1.1.1h0c0,0,0,0,.1-.1v-.3c.1,0,.1,0,0,0-.1-.7-.4-1.4-.9-2,0,0-.2,0-.3,0h0c0-.2-.2-.3-.3-.5,0,0-.1,0-.2,0,0,0-.1,0-.1.2,0,.1,0,.2,0,.3,0,0,0,0,0,0-.1-.1-.2-.2-.3-.2h0c0-.2-.2-.5-.3-.7,0,0-.2-.1-.3,0,0,0,0,.1,0,.2v.6c-.2-.8-.5-1.6-1-2.3,0,0-.2,0-.3,0h0c-.2-.4-.4-.4-.4-.4,0,0-.1,0-.2,0,0,0,0,0,0,.2-.1-.2-.2-.5-.4-.7,0,0-.2-.1-.3,0h0c0-.2-.1-.4-.2-.6h0c0,0-.1-.1-.2-.1-.2,0-.3.1-.4.4,0-.2-.2-.3-.3-.5,0,0-.1-.1-.2,0h0c0-.2,0-.4-.2-.5,0,0-.1-.1-.2-.1,0,0-.2,0-.2.1v.4c0-.4,0-.9,0-1.3,0,0,0-.2-.2-.2h0c0-.2,0-.3,0-.5,0,0,0-.1-.1-.2,0,0-.1,0-.2,0-.1,0-.3.2-.4.3,0-.4,0-.8,0-1.2,0-.1,0-.2-.2-.2h0c0-.1,0-.2,0-.4,0,0,0-.1-.1-.2,0,0-.1,0-.2,0,0,0-.2.1-.2.2.2-.4.3-.9.4-1.3,0,0,0-.2-.2-.2h0c0-.2.1-.5.1-.8,0,0,0-.1-.1-.2,0,0-.1,0-.2,0,0,0-.2.1-.3.2.1-.3.2-.5.3-.8,0-.1,0-.2-.1-.2,0,0,0,0-.1,0,0-.2.1-.3.2-.5,0-.1,0-.2-.1-.2h0c.1-.2.2-.5.3-.8,0-.2,0-.4,0-.5h0v-.2c0,0-.1,0-.2,0,0,0-.1,0-.2,0-.2,0-.3,0-.5.1.3-.4.5-.7.7-1.1,0,0,0-.2,0-.3h0c.1-.1.2-.2.3-.4,0,0,0-.2,0-.2,0,0-.2,0-.2,0,0,0-.7.3-1.3.6h0c.9-.3,1.5-1.1,1.8-2,0,0,0-.2-.1-.2h0s0,0,0-.1c0,0-.1,0-.2,0l-.8.2c1.2-.6,1.3-2.4,1.3-2.5,0,0,0-.2-.1-.2,0,0-.2,0-.2,0h0s0,0,0,0c0,0-.2,0-.2,0-.5.3-1,.7-1.4,1.1-.2-.4-.5-.8-.8-1.1,0,0-.2,0-.2,0h-.3c0,0-.2,0-.2.1-.2.6-.3,1.2-.3,1.8l-.3-.2c0,0-.2,0-.2,0,0,0,0,.1,0,.2,0,.2,0,.3.1.5h0c-.1,0-.2,0-.2.2,0,.4,0,.9.2,1.3,0,0,0,0,0,0,0,0,0,0-.1.1h0c0-.2-.1-.3-.2-.3-.1,0-.2,0-.2.2,0,.8,0,1.6.3,2.3-.1,0-.2,0-.4,0,0,0-.2,0-.3,0,0,0-.1.2,0,.3,0,0,0,0,0,0,0,0,0,.2.1.3h0c0,0-.1.2-.1.2.2.5.4.9.7,1.4l-.7-.2c0,0-.2,0-.2,0,0,0,0,.2,0,.2,0,0,0,.2.1.2,0,0-.1.2,0,.2.2.4.5.9.8,1.2h-.5c0,0-.2,0-.2.1,0,0,0,.2,0,.2h.1c0,.1,0,.1,0,.1,0,0-.1.2,0,.3.4.6.8,1.1,1.3,1.5h-.8c0,0-.2,0-.2,0,0,0,0,.2,0,.2,0,0,.2.2.2.3h0c0,0,0,.2,0,.3.9,1,2,1.7,3.2,2.2h0c-.3.2-.7.4-1.1.4h0c-.1,0-.2,0-.2.1,0,0,0,.2.1.2,0,0,.1,0,.2,0h0c0,.1,0,.2,0,.3.2.3.5.4.9.5l-.5.2c0,0-.1,0-.2.2,0,0,0,.2,0,.2,0,0,.2.1.2.2,0,0,0,0,0,0,0,0,0,.2,0,.3.8.7,1.9,1.2,3,1.2l-.6.5c0,0,0,.1,0,.2,0,0,0,.1.2.2h.3c0,.2,0,.2.2.3.4.1.8.2,1.2.2h.2c-.2.2-.5.4-.8.6,0,0-.1.1-.1.2,0,0,0,0-.1.1,0,.1,0,.2.1.3.6.2,1.2.3,1.9.3h0c.2,0,.5,0,.7,0l-.3.4c0,0,0,.2,0,.2,0,0,.1.1.2.1h0s.4,0,1-.2c0,0,0,.1,0,.2,0,0,.1.1.2.1h0c1-.2,2-.6,2.9-1.3,0,0,0,0,0-.2l.3.3ZM18.6,34.7h-.2c0-.3,0-.5,0-.7,0,.3.1.5.2.7M18.3,35.3h.1c-.5.4-1.1.6-1.8.7.6-.1,1.2-.4,1.6-.7M17.7,34.1h0c0-.1,0-.2,0-.3,0,.1,0,.2,0,.4M16.9,33.3l-.2-.2v-.7c0,.3.1.6.2.9M15.9,31.3c0,.3,0,.6,0,1l-.3-.4c0-.1.1-.3.2-.6M14.9,29.6h0c0,.3-.2.8-.3,1.1l.2-1.1ZM15.3,32.6v.2h-.8c-.5,0-.9,0-1.4,0h.5c.5,0,1.1,0,1.6-.1M14.2,30.2h0c0,.1,0,0,0,0M13.9,28.3c0-.1.1-.3.2-.4,0,.5-.2,1-.4,1.6l-.2-.3c.1-.3.3-.6.4-.9h0M13.8,25.7c-.3.7-.6,1.4-1.1,2v-.4c-.1,0,1.1-1.7,1.1-1.7ZM13.2,28.2c0,0,0,.1,0,.2h0s0-.1.1-.2M12.5,25.3c-.2.3-.4.5-.5.6h0c.2-.3.4-.5.5-.6M12,25v-.2c.2-.1.4-.3.6-.5-.2.3-.4.5-.6.7M12.5,26.5v.2h-.1.1M12.7,29v.2c-.5-.2-1.1-.4-1.6-.8.5.3,1.1.5,1.6.6M13.5,22.4c-.4.6-.9,1.2-1.6,1.6v-.2l1.1-1.1h0c.1-.1.2-.2.4-.3M11.9,23v-.2c.3-.2.5-.4.8-.6-.3.3-.6.7-.8.9M13.9,16.8c-.1.4-.4.7-.7,1l.7-1ZM13.1,16.6l-.4.7v-.3l.4-.4M12.6,18.5h0M12.6,18.9l.8-.2c-.3.3-.6.5-1,.7l.2-.5ZM13,20.5c-.4.4-.8.8-1.2,1.2v-.5c.4-.2.8-.4,1.2-.6M12,17.3c0,0,0,.1,0,.2l-.3-1c.1.2.2.5.3.8M11.1,16.4l.7,2.4v.4c-.8-.8-1-1.8-.7-2.8M11.1,21.5v.2c-.1-.2-.3-.4-.4-.6.1.1.2.2.4.3M10.8,22.6v.5c-.5-.4-.8-1-1-1.6.2.5.6.9,1,1.2M9.4,22.2s0,0,0,0c.4.7.9,1.2,1.5,1.7v.3c-.6-.6-1.1-1.3-1.6-2M9.3,24.4h.3c.3.4.6.7.9,1.1-.4-.3-.8-.6-1.1-1M9.4,26.3h.1c.8.6,1.6,1.1,2.5,1.5h0c-.9-.3-1.8-.9-2.6-1.5M10.1,28.6c.8.8,1.9,1.2,3,1.2l.2.4c-1.3-.3-2.5-.9-3.6-1.6h.3ZM11.3,30.1c.9.3,1.7.6,2.6.9l.2.2c-1-.2-2-.6-2.8-1.1M12.1,31.8l.4-.2c.4.2.9.3,1.4.3h-.2c-.5,0-1,0-1.6-.1M12.6,33.2c.7,0,1.4.1,2.1.1.4,0,.9,0,1.3-.1l.4.4c-.3,0-.8,0-1.3,0-.9,0-1.7-.1-2.6-.4h.1M13.2,34.2c.7.1,1.5.2,2.2.2.5,0,1,0,1.5-.2h.1c-.6.4-1.2.5-1.8.5h0c-.7,0-1.4-.2-2.1-.5M15.2,35.6h-.2l.2-.2c.8,0,1.6-.3,2.3-.7h.1c-.7.6-1.6.8-2.5.8M16.3,37.1c.2-.1.3-.3.4-.4.8,0,1.6-.4,2.2-.8l.3.2c-.8.7-1.9,1.1-3,1.1M18.3,38.1h.4c0,0-.4,0-.4,0M17.5,37.6c.8-.2,1.6-.5,2.2-1.1h.1c-.7.7-1.5,1-2.4,1.1M18.7,37.9c.7-.2,1.3-.6,1.8-1.1h.2c-.6.6-1.2.9-1.9,1.1M20,38c.4-.2.8-.5,1.2-.8h.1c-.4.3-.9.6-1.3.8"/>
    <polygon class="st0" points="23.4 38.5 24.2 38 23.3 37.6 22.8 38.2 23.4 38.5"/>
    <path class="st1" d="M26.1,37.4c-1.8.4-3.3,1.6-4.1,3.2l.8.3c.8-1.4,2.2-2.4,3.7-2.9l-.4-.6Z"/>
    <path class="st1" d="M25.4,38.7l-.7.5c.7.5,1.4,1.2,1.9,2l.7-.3c-.5-.9-1.1-1.6-1.9-2.2"/>
    <path class="st1" d="M12.2,17.3c-.1-.7-.5-1.3-1-1.7l.9,3c.2-.3.1-1.3.1-1.3"/>
    <path class="st1" d="M11.7,19.6h0l.3-.8-1-3.2c-.9,2.9.6,3.9.6,3.9"/>
    <path class="st1" d="M13.7,15.5c-.5.4-1,.8-1.4,1.2l.2,1,1.3-2.2Z"/>
    <path class="st1" d="M14.1,15.6l-1.7,2.5c1.6-.2,1.7-2.5,1.7-2.5"/>
    <path class="st1" d="M12.3,18.6l-.4,1.1c.8-.4,1.5-.9,2-1.6l-1.6.5Z"/>
    <path class="st1" d="M11.8,20.3s1.9-.5,2.3-2c-.6.7-1.4,1.3-2.2,1.7v.3Z"/>
    <polygon class="st1" points="11.6 20.7 12.2 20.3 11.7 20.5 11.6 20.7"/>
    <path class="st1" d="M11.5,22.1c.8-.7,1.6-1.4,2.3-2.2-.8.3-1.5.7-2.2,1.1v1.1Z"/>
    <path class="st1" d="M11.4,23.4c.9-.8,1.6-1.8,2.2-2.8,0,0-1.9,1.8-2.2,1.9v.9Z"/>
    <path class="st1" d="M11.5,24.3c.9-.6,1.7-1.4,2.2-2.4-.4,0-.8.2-1,.5l-1.2,1.2v.6Z"/>
    <path class="st1" d="M13.7,22.3c.2-1.2,0,0,0,0,0,0-1.5,2.1-2.1,2.2v.8c0,0,1.9-1.8,2.1-3"/>
    <path class="st1" d="M13.6,23.4c-.6.8-1.2,1.5-2,2.2l.2.7c.8-.8,1.4-1.8,1.8-2.9"/>
    <path class="st1" d="M13.7,24.1c-.5.8-1.1,1.6-1.7,2.3l.2.6c.7-.9,1.2-1.8,1.6-2.9"/>
    <path class="st1" d="M14,25c-.2.1-.3.2-.4.4l-1.4,1.9.4.9s1.4-2.2,1.4-3.1"/>
    <path class="st1" d="M14.1,25.9s-.9,1.6-1.4,2.4l.3.6c.4-1,.8-2,1.1-3"/>
    <path class="st1" d="M13.6,28.2c-.1.3-.2.6-.4.9.1.3.3.6.5.9.3-.8.5-1.7.5-2.6-.3.2-.5.5-.6.8"/>
    <path class="st1" d="M13.8,30.2l.4.6c.2-.9.3-1.9.3-2.9,0,0-.2,1.3-.3,1.6,0,0-.2.7-.3.7"/>
    <path class="st1" d="M14.7,31.3c.2-.7.4-1.5.5-2.3-.2.1-.4.3-.5.5l-.2,1.5.3.3Z"/>
    <path class="st1" d="M15.1,31.8c.2-.7.3-1.4.3-2.1l-.5,1.9.2.3Z"/>
    <path class="st1" d="M15.3,31.9l.9,1c0-.8-.1-1.6-.3-2.3-.1.5-.3.9-.6,1.3"/>
    <path class="st1" d="M17.1,33.8c0-.9-.4-1.8-.8-2.6v2c.1,0,.8.7.8.7Z"/>
    <path class="st1" d="M17.4,34.1l.6.4c-.2-1.1-.4-2.1-.8-3.1,0,0,0,0-.2.4.2.8.4,1.6.5,2.4"/>
    <path class="st1" d="M18.2,34.7l.7.5c-.2-1.1-.6-2.1-1.2-3.1.3.8.4,1.7.5,2.6"/>
    <path class="st1" d="M19.6,35.7s-.6-3.3-1.1-3c.3.8.5,1.7.6,2.7l.4.3Z"/>
    <path class="st1" d="M19.9,35.8l.5.4c-.2-1.1-.7-2.2-1.2-3.1.4.9.6,1.8.7,2.8"/>
    <path class="st1" d="M21,36.5c0-.7-.2-1.4-.5-2.1v1.8c.1,0,.5.2.5.2Z"/>
    <path class="st1" d="M21.3,36.7l.6.4c-.1-.6-.4-1.2-.7-1.7v1.3Z"/>
    <path class="st1" d="M21.2,35.3h0s-.3-.3,0,0"/>
    <path class="st1" d="M21.7,35.4c.2.5.4,1.1.4,1.7l.4.3c0-.9-.3-1.8-.9-2.5,0,.2,0,.3,0,.5"/>
    <path class="st1" d="M22.2,35.4c.3.7.5,1.4.5,2.1h.2c0,.1.1-.2.1-.2-.1-.7-.4-1.3-.8-1.9"/>
    <path class="st1" d="M11.6,19.8c-.6-.6-1-1.4-1.1-2.2,0,0-.3-.2-.4-.2.3,1,.7,2,1.3,2.9l.2-.4Z"/>
    <path class="st1" d="M11.3,21.1v-.6c-.7-.7-1.2-1.5-1.4-2.4,0,1.1.5,2.2,1.4,2.9"/>
    <path class="st1" d="M11.3,22.4v-1c-.5-.4-1-1-1.2-1.6.1,1,.6,1.9,1.2,2.6"/>
    <path class="st1" d="M11.3,23.4v-.9c-1.4-.6-2-2.8-2-2.8.1,3.1,2,3.8,2,3.8"/>
    <path class="st1" d="M11.1,23.8c-.6-.4-1.1-1-1.5-1.6-.2-.1-.4-.2-.6-.1.6,1,1.3,2,2.2,2.8v-1Z"/>
    <path class="st1" d="M11.5,25.9l-.2-.9c-.9-.6-1.7-1.5-2.2-2.5.6,1.3,1.4,2.4,2.5,3.3"/>
    <path class="st1" d="M11.8,26.5v-.3c-.9-.6-1.5-1.3-2.1-2l-.9-.2c.8,1,1.8,1.9,2.9,2.5"/>
    <path class="st1" d="M12,27.4l-.2-.5s-2.5-1.3-2.9-2.2c.6,1.3,1.8,2.3,3.1,2.8"/>
    <path class="st1" d="M9,26c.9,1.2,3.6,2.3,3.6,2.3l-.4-.8c-.9-.4-1.8-.9-2.6-1.6h-.6Z"/>
    <path class="st1" d="M13.1,29.4l-.4-.7c-1.4-.4-2.6-1.1-3.7-2.1.9,1.5,2.4,2.5,4.1,2.8"/>
    <path class="st1" d="M13.8,30.6l-.6-.9c-2.3-.2-3-1.2-3-1.2h-1c1.1,1.3,4.6,2.2,4.6,2.2"/>
    <path class="st1" d="M14,30.8s-3.6-.9-4.6-1.9c1.4,1.5,3.2,2.4,5.2,2.6l-.6-.7Z"/>
    <path class="st1" d="M15.1,32.1l-.4-.3c-.8,0-1.5-.1-2.3-.4-.4.2-.8.4-1.2.5,0,0,.9.5,3.8.2"/>
    <path class="st1" d="M15.7,32.9s-.4-.6-.5-.6c-1.2.2-2.5.2-3.7,0,.7.9,4.2.6,4.2.6"/>
    <path class="st1" d="M16.7,33.8l-.7-.8c-1.2.2-2.3.2-3.5,0-.2.1-.4.2-.6.2,1.5,1.1,4.9.6,4.9.6"/>
    <path class="st1" d="M17.4,34.5l-.4-.5c-1.9.6-4.8-.2-4.8-.2,1.5,1.3,3.5,1.5,5.3.7"/>
    <path class="st1" d="M18,34.9l-.5-.4c-.7.4-1.6.7-2.4.7l-.7.5c1.3.2,2.6-.1,3.6-.9"/>
    <path class="st1" d="M18.8,35.4l-.5-.4c-.5.8-3.2,1.1-3.2,1.1,1.3.3,2.7,0,3.8-.7"/>
    <path class="st1" d="M16.6,36.5c-.2.4-.6.6-1,.8,1.5.2,2.9-.2,4-1.3l-.7-.4c-.7.5-1.5.8-2.3.9"/>
    <path class="st1" d="M20.3,36.4l-.5-.3c-1.5,1.6-4.3,1.3-4.3,1.3,1.7.7,3.6.3,4.8-1"/>
    <path class="st1" d="M21.1,36.9l-.6-.3c-.6.7-1.4,1.1-2.2,1.3l-.5.6s2.4-.4,3.3-1.5"/>
    <path class="st1" d="M19.3,38.2l-.4.4c.9,0,2.8-1.2,2.8-1.2l-.5-.4c-.6.5-1.2.9-1.9,1.2"/>
    <path class="st1" d="M41.5,23.9c0,0-.1,0-.2,0h-.7c.3-.3.5-.7.7-1.2,0-.1,0-.2-.1-.3h0c0,0,.1-.2.2-.3,0-.1,0-.2,0-.3,0,0,0,0,0,0,0,0-.2,0-.3,0-.1,0-.3,0-.4,0,.3-.8.4-1.5.3-2.3,0-.1-.1-.2-.2-.2-.1,0-.2,0-.2.2,0,0,0,0,0,.1,0,0,0,0-.1-.1h0c.2-.5.2-1,.2-1.5,0-.1,0-.2-.2-.2h-.1c0-.3.1-.5.2-.5,0-.1,0-.2-.1-.3,0,0-.1,0-.2,0-.1,0-.2.1-.3.2,0-.6,0-1.2-.3-1.8,0,0-.1-.2-.2-.1h0s0,0,0,0c0,0-.2,0-.3,0-.4.3-.7.7-.9,1.1-.5-.4-.9-.8-1.5-1.2,0,0-.2,0-.2,0,0,0,0,.1,0,.2h0c0-.2-.2-.2-.3-.2,0,0-.2.1-.2.2,0,0,0,1.9,1.3,2.5l-.8-.2c0,0-.2,0-.2,0,0,0,0,0,0,.1h0c0,0-.1.1-.1.2.3.9.9,1.7,1.8,2h0c-.6-.3-1.3-.5-1.3-.6,0,0-.2,0-.2,0,0,0,0,.2,0,.2,0,.1.2.3.3.4h0c0,0-.1.2,0,.3.2.4.4.8.7,1.2-.2,0-.3-.1-.5-.1,0,0,0,0-.2,0,0,0-.1,0-.2,0v.2h0c0,.2,0,.3,0,.5,0,.3.2.5.3.8h0c0,0-.1.1-.1.2,0,.2.1.3.2.5,0,0-.1,0-.2,0,0,0-.2.1-.1.2,0,.3.2.6.3.8,0,0-.2-.1-.3-.2-.1,0-.2,0-.3,0,0,0,0,0,0,.1,0,.3,0,.5.1.8,0,0,0,0,0,0,0,0-.2.1-.2.2,0,.5.3,1,.5,1.5,0,0-.2-.1-.3-.2,0,0-.1,0-.2,0,0,0-.1,0-.1.2,0,.1,0,.2,0,.4h-.1c-.1,0-.2,0-.2.2,0,.4,0,.8,0,1.2-.1-.1-.3-.2-.4-.3,0,0-.2,0-.2,0,0,0-.1.1-.1.2,0,.2,0,.3,0,.5,0,0,0,0,0,0-.1,0-.2,0-.2.2,0,.4,0,.9,0,1.3l-.2-.4c0,0-.1-.1-.2-.1,0,0-.2,0-.2.1,0,.2-.1.4-.2.5h0c0,0-.2,0-.3,0-.1.2-.2.3-.3.5-.1-.2-.2-.4-.4-.4,0,0-.1,0-.2,0h0c-.1.3-.2.5-.3.7h0c-.1,0-.2,0-.3,0-.2.2-.3.4-.4.7,0,0,0-.1,0-.2,0,0-.1,0-.2,0s-.2,0-.5.4h0c0,0-.2,0-.3,0-.5.7-.8,1.5-1,2.3v-.6c0,0,0-.2-.1-.2,0,0-.2,0-.2,0-.2.2-.3.4-.4.7h0c-.1,0-.1,0-.3.2,0,0,0,0,0,0,0-.1,0-.2,0-.3,0,0,0-.2-.2-.2,0,0-.2,0-.2,0-.1.1-.2.3-.3.5h0c0,0-.2,0-.3,0-.5.6-.8,1.3-.9,2,0,0,0,0,0,.1v.3c.1,0,.2,0,.2.1,0,.2,0,.6,1.1.8h1c0,0,.9,0,.9,0h.3c.3.1.7.2,1,.2h0c0,0,.2,0,.2-.1,0,0,0-.2,0-.2.3.1.7.2,1.1.2h0c0,0,.2,0,.2-.1,0,0,0-.2,0-.3l-.4-.3c.3,0,.5,0,.8,0h0c.7,0,1.3-.1,1.9-.3.1,0,.2-.1.2-.2,0,0,0,0,0,0,0,0,0-.1-.1-.1,0,0,0-.2-.1-.2-.3-.1-.6-.3-.8-.6h-.1c.4,0,.8,0,1.2-.2,0,0,.2-.1.2-.2,0,0,0,0,0,0h.4c0,0,.2,0,.2-.2,0,0,0-.2,0-.2l-.7-.5c1.1,0,2.2-.5,3.1-1.2,0,0,.1-.2,0-.3,0,0,0,0,0,0,0,0,.2-.1.3-.2,0,0,.1-.1,0-.2,0,0,0-.2-.2-.2h-.4c.3-.2.7-.4.9-.6,0,0,0-.2,0-.2,0,0,0,0,0,0,0,0,.2,0,.2,0,0,0,.1-.2.1-.2,0-.1-.1-.2-.2-.1h0c-.4,0-.8-.2-1.1-.4h0c1.3-.5,2.4-1.2,3.3-2.2,0,0,0-.2,0-.3h0c0,0,.2-.2.2-.3,0,0,0-.2,0-.2,0,0-.1-.1-.2-.1h-.8c.5-.3,1-.8,1.3-1.4,0,0,0-.2,0-.3h0,.1c0-.2,0-.3,0-.4,0,0-.1-.1-.2-.1h-.6c.4-.4.6-.8.8-1.2,0,0,0-.2,0-.2l.2-.2c0,0,0-.2,0-.2M40.7,22.4h0c-.5.7-1,1.4-1.6,2v-.3c.6-.4,1.1-1,1.5-1.6M40.2,21.6c-.2.6-.5,1.2-1,1.6v-.5c.4-.3.8-.7,1-1.2M39.6,21.3c-.1.2-.2.4-.4.6v-.3c.1,0,.3-.2.4-.3M39,16.4c.3,1,0,2-.6,2.8l-.2-.4.8-2.4ZM38.4,22.8c-.2-.2-.5-.6-.8-.9.3.3.6.5.8.6v.2ZM38,17.3c0-.3.1-.5.3-.8l-.3,1c0,0,0-.1,0-.2M37.5,18.3h0M37.5,16.8v.3l-.4-.7.5.4M36.3,16.6l.7,1c-.3-.3-.6-.6-.7-1M36.7,18.5l.8.2.2.5c-.4-.2-.7-.4-1-.7M38.3,21.1v.5c-.5-.4-.9-.8-1.3-1.2.5.2,1,.4,1.3.6M37.2,22.6h0l1.2,1.1v.2c-.6-.4-1.2-1-1.6-1.6.2,0,.3.2.4.3M37.8,26.6v-.2c0,0,0,0,0,.1h0ZM39.2,28.3c-.6.4-1.2.6-1.8.8v-.2c.7-.2,1.3-.4,1.8-.6M37.6,25.2c.2.2.4.3.6.5h0c-.2,0-.4-.3-.5-.5M37.6,24.2c.2.2.4.3.6.5v.2c-.2-.2-.4-.4-.6-.7M37.5,27.3l-.2.4c-.4-.6-.8-1.3-1.1-2l1.2,1.7ZM37,28.3h0c0,0,0-.1,0-.2,0,0,0,.1,0,.2M36.2,28.2h0c.1.3.2.6.4.9l-.2.3c-.1-.5-.3-1-.4-1.5,0,.1.1.2.2.4M35.9,30.2h0c0-.1,0,0,0,0M35.1,29.5l.2,1.1c-.1-.4-.2-.8-.3-1.2h0M34.7,32.5c.6,0,1.1.1,1.7.1h.5c-.5,0-.9,0-1.4,0h-1v-.2M34,31.4c0,.2.2.4.3.6l-.4.4c0-.3,0-.7,0-1M33.2,32.4v.7l-.2.2c0-.2.1-.6.2-.9M32.2,33.7v.3h0c0-.1,0-.2,0-.4M31.6,35.3c.5.4,1.1.6,1.7.7-.6,0-1.3-.3-1.8-.6h.1ZM31.4,34c0,.2,0,.4,0,.6h-.2c0,.1.2-.6.2-.6M28.4,37.2c.4.3.8.5,1.2.8-.5-.2-.9-.4-1.4-.7h.1ZM29,36.9h.2c.5.4,1.1.8,1.8,1-.7-.2-1.4-.5-2-1M31,37.9h.4c0,0-.4,0-.4,0M29.7,36.4h.1c.6.5,1.4.9,2.3,1-.9,0-1.8-.4-2.5-1M30.5,36l.3-.2c.7.5,1.5.7,2.3.8.1.2.3.3.4.4-1.1,0-2.2-.4-3-1.1M34.7,35.6c-.9,0-1.8-.2-2.6-.7h.1c.8.3,1.6.5,2.4.6l.2.2h-.2M34.6,34.8h0c-.6,0-1.3-.1-1.9-.3h.2c.5,0,1.1,0,1.6,0,.8,0,1.5,0,2.3-.2-.7.3-1.4.5-2.2.5M35,33.7c-.5,0-1,0-1.4,0l.4-.4c.5,0,.9.1,1.4.1.7,0,1.4,0,2.1-.1h.1c-.8.4-1.7.5-2.7.5M37.9,31.8c-.5,0-1.1.1-1.6.1h-.2c.5,0,1-.1,1.4-.3l.4.2M35.9,31.2l.2-.2c.3,0,1.5-.4,2.7-.9-.9.5-1.9.9-2.9,1.1M40.3,28.5c-1.1.8-2.4,1.3-3.7,1.7l.2-.4c1.2,0,2.3-.5,3.1-1.3h.3ZM40.6,26.2h.1c-.8.7-1.7,1.2-2.7,1.7h0c.9-.5,1.8-1,2.6-1.7M39.6,25.4c.4-.4.8-.8.9-1h.3c-.3.3-.7.7-1.2.9"/>
    <path class="st1" d="M37.8,17.3c.1-.7.5-1.3,1-1.7l-.9,3c-.2-.3,0-1.3,0-1.3"/>
    <path class="st1" d="M38.5,19.6h-.2l-.3-.8,1-3.2c.9,2.9-.7,3.9-.7,3.9"/>
    <path class="st1" d="M36.3,15.5c.5.4,1,.8,1.5,1.2l-.2,1-1.3-2.2Z"/>
    <path class="st1" d="M35.8,15.6l1.7,2.5c-1.6-.2-1.7-2.5-1.7-2.5"/>
    <path class="st1" d="M37.7,18.6l.4,1.1c-.8-.4-1.5-.9-2-1.6l1.6.5Z"/>
    <path class="st1" d="M38.3,20.3s-2-.5-2.4-2c.7.7,1.4,1.3,2.3,1.7v.3Z"/>
    <polygon class="st1" points="38.4 20.7 37.8 20.3 38.4 20.5 38.4 20.7"/>
    <path class="st1" d="M38.5,22.1c-.8-.7-1.6-1.4-2.3-2.2.8.3,1.5.7,2.3,1.1v1.1Z"/>
    <path class="st1" d="M38.6,23.4c-.9-.8-1.6-1.8-2.3-2.8,0,0,2,1.8,2.3,1.9v.9Z"/>
    <path class="st1" d="M38.7,24.3c-1-.6-1.8-1.4-2.3-2.4.4,0,.8.2,1,.5l1.3,1.2v.7Z"/>
    <path class="st1" d="M36.3,22.3c-.2-1.2,0,0,0,0,0,0,1.6,2.1,2.2,2.2v.9c0,0-2-1.8-2.2-3"/>
    <path class="st1" d="M36.4,23.4c.6.8,1.2,1.5,2,2.2l-.2.7c-.8-.8-1.4-1.8-1.8-2.9"/>
    <path class="st1" d="M36.3,24.1c.5.8,1.1,1.6,1.8,2.3l-.2.6c-.7-.9-1.3-1.8-1.6-2.9"/>
    <path class="st1" d="M36,25c.2,0,.3.2.4.4l1.4,1.9-.4.9s-1.5-2.2-1.5-3.1"/>
    <path class="st1" d="M35.9,25.9s.9,1.6,1.4,2.4l-.3.6c-.5-1-.8-2-1.2-3"/>
    <path class="st1" d="M36.4,28.2c.1.3.3.6.4.9-.2.3-.3.6-.5.9-.3-.8-.5-1.7-.5-2.6.3.2.5.5.6.8"/>
    <path class="st1" d="M36.2,30.1l-.4.6c-.2-.9-.3-1.9-.3-2.9,0,0,.2,1.3.3,1.6,0,0,.3.7.4.7"/>
    <path class="st1" d="M35.2,31.3c-.2-.7-.4-1.5-.5-2.3.2.1.4.3.5.5l.2,1.5-.3.3Z"/>
    <path class="st1" d="M34.8,31.7c-.2-.7-.3-1.4-.3-2.1l.5,1.9-.2.3Z"/>
    <path class="st1" d="M34.6,31.9l-.9,1c0-.8.1-1.6.3-2.3.2.5.4.9.6,1.3"/>
    <path class="st1" d="M32.7,33.8c0-.9.4-1.8.8-2.6v2c0,0-.8.7-.8.7Z"/>
    <path class="st1" d="M32.5,34.1l-.6.4c.2-1.1.4-2.1.8-3.1,0,0,0,0,.2.4-.2.8-.4,1.6-.5,2.4"/>
    <path class="st1" d="M31.6,34.7l-.8.5c.2-1.1.6-2.1,1.2-3.1-.3.8-.4,1.7-.5,2.6"/>
    <path class="st1" d="M30.2,35.6s.7-3.3,1.1-3c-.3.8-.6,1.7-.6,2.7l-.5.3Z"/>
    <path class="st1" d="M29.9,35.8l-.5.4c.3-1.1.7-2.1,1.3-3.1-.4.9-.7,1.8-.8,2.8"/>
    <path class="st1" d="M28.7,36.5c0-.7.2-1.4.5-2.1v1.8c-.1,0-.5.2-.5.2Z"/>
    <path class="st1" d="M28.4,36.7l-.6.4c.1-.6.4-1.2.7-1.7v1.3Z"/>
    <path class="st1" d="M28.5,35.3h0s.3-.3,0,0"/>
    <path class="st1" d="M28,35.4c-.2.5-.4,1.1-.4,1.7l-.4.3c0-.9.4-1.8.9-2.5,0,.2,0,.3,0,.5"/>
    <path class="st1" d="M27.5,35.4c-.3.7-.5,1.4-.5,2.1h-.2c0,.1-.1-.2-.1-.2.1-.7.4-1.3.9-1.9"/>
    <path class="st1" d="M38.4,19.8c.6-.6,1-1.4,1.2-2.2.1,0,.3-.2.4-.2-.3,1-.7,2-1.4,2.9l-.2-.4Z"/>
    <path class="st1" d="M38.7,21.1v-.6c.7-.7,1.2-1.5,1.4-2.4,0,1.2-.5,2.2-1.4,2.9"/>
    <path class="st1" d="M38.9,22.4v-1c.6-.4,1-1,1.3-1.6-.1,1-.6,1.9-1.3,2.6"/>
    <path class="st1" d="M38.9,23.5v-1c1.3-.7,1.6-3,1.6-3,.2,3.1-1.6,3.9-1.6,3.9"/>
    <path class="st1" d="M38.9,23.8c.6-.4,1.2-1,1.5-1.7.2-.1.4-.2.6-.1-.6,1-1.4,2-2.2,2.8v-1Z"/>
    <path class="st1" d="M38.5,25.9l.2-.9c.9-.6,1.7-1.5,2.3-2.4-.6,1.3-1.5,2.4-2.6,3.3"/>
    <path class="st1" d="M38.3,26.5v-.3c.9-.6,1.5-1.3,2.1-2l.9-.2c-.8,1-1.8,1.9-3,2.5"/>
    <path class="st1" d="M38,27.4l.2-.5s2.6-1.3,3-2.2c-.7,1.3-1.8,2.3-3.2,2.8"/>
    <path class="st1" d="M41.2,26c-.9,1.2-3.7,2.3-3.7,2.3l.5-.8c1-.4,1.8-.9,2.6-1.6h.6Z"/>
    <path class="st1" d="M36.9,29.4l.5-.7c1.4-.4,2.8-1.1,3.8-2.1-1,1.5-2.5,2.5-4.3,2.8"/>
    <path class="st1" d="M36.1,30.5l.6-.9c2.4-.2,3.1-1.2,3.1-1.2h1c-1.1,1.3-4.7,2.2-4.7,2.2"/>
    <path class="st1" d="M36,30.8s3.7-.9,4.7-1.9c-1.4,1.5-3.3,2.4-5.4,2.6l.6-.7Z"/>
    <path class="st1" d="M34.8,32.1l.4-.3c.8,0,1.6-.1,2.3-.4.4.2.8.4,1.2.5,0,0-.9.5-4,.2"/>
    <path class="st1" d="M34.2,32.9c.1-.2.3-.4.5-.6,1.3.2,2.6.2,3.8,0-.7.9-4.3.6-4.3.6"/>
    <path class="st1" d="M33.1,33.5l.9-.7c1.2.3,2.4.4,3.6.4.2.1.4.2.6.3-1.6.9-5.1,0-5.1,0"/>
    <path class="st1" d="M32.5,34.5l.5-.5c1.9.6,5-.2,5-.2-1.5,1.3-3.7,1.5-5.5.7"/>
    <path class="st1" d="M31.8,34.9l.5-.4c.8.4,1.6.7,2.5.7l.7.5c-1.3.2-2.7-.1-3.7-.9"/>
    <path class="st1" d="M31,35.4l.6-.4c.5.8,3.4,1.1,3.4,1.1-1.4.3-2.8,0-3.9-.7"/>
    <path class="st1" d="M33.3,36.4c.3.4.6.6,1,.8,0,0-2.6.4-4.1-1.3l.7-.4c.7.5,1.6.8,2.4.9"/>
    <path class="st1" d="M29.4,36.4l.6-.3c1.5,1.6,4.5,1.3,4.5,1.3-1.7.7-3.7.3-5-1"/>
    <path class="st1" d="M28.6,36.8l.6-.3c.6.7,1.4,1.1,2.3,1.3l.5.6s-2.5-.4-3.4-1.5"/>
    <path class="st1" d="M30.4,38.2l.4.3c-1,0-2.9-1.2-2.9-1.2l.5-.4c.6.5,1.3.9,2,1.2"/>
    <path class="st1" d="M27.2,37.6c.6.5,1.4.8,2.2.9,0,0-1.7-.7-1.9-1.2l-.3.3Z"/>
    <path class="st1" d="M26.9,37.8c.5.4,1.1.7,1.8.8,0,0-2-.2-2-.8h.2Z"/>
    <path class="st1" d="M31.6,22.1l-1.3-.8c0-.3.1-.6.1-.9l1-.3-1-.2c0-.3,0-.5-.1-.8l2.6-1.6-2.9.5c-.1-.3-.3-.5-.5-.8l.6-.9-1,.5c-.2-.2-.4-.4-.6-.5l1.2-2.7-2.2,2c-.2-.1-.4-.2-.7-.3v-1.5l-.7,1.4c-.2,0-.4,0-.6,0l-.6-3.1-.4,3.1c-.2,0-.5,0-.7.2l-.9-1.4v1.6c0,.1-.3.2-.5.4l-2.5-2.4,1.6,3c-.1.1-.2.3-.3.4l-1.5-.4.9,1.2c0,.1-.1.3-.2.4l-3.6-.5,3.3,1.8v.3l-2.1.8,2.1.4c0,.1,0,.2,0,.4l-2.2,1.5,2.5-.4h0l.2.4h0l-.5,1.3,1.1-.5c.1.1.2.2.3.4l-.3.5.5-.3c2.1,1.8,5.4,1.5,7.2-.6,0,0,0,0,0,0l1,.4-.6-1c.1-.2.3-.5.4-.7h1.5Z"/>
    <path class="st2" d="M11,15.4l5,2.5s.1,3.9,4.8,6.1c0,0,2.1,1.3,2.8-.4,0,0,.5-1.8-1.3-1,0,0-.2-1.1,1.5-1.3,0,0,.4-1.1,1.9-.8,0,0,1.3.3,1.4,2.5,0,.8.7,1.4,1.5,1.4.2,0,.4,0,.6-.2,0,0,4.7-1.8,4.9-6.1l5.1-2.9c-.5,1.9-1.5,3.6-2.7,5h1.8c-1.1,1.8-2.6,3.2-4.5,4.1l1.6.4c-1.6,1.2-3.5,1.7-5.5,1.5l1,1.3-5.6,3.3-5.6-3.3.8-1.1s-3.8,0-5.5-1.6l1.7-.6s-3.6-1.2-4.8-3.9h1.7c-1.2-1.4-2.1-3.1-2.5-4.9"/>
    <path class="st0" d="M24.1,21.6s0-.5,1.3-.4c0,0-.4,0-.4.1s.1.3,0,.5c0,0-.3,0-.6-.3,0,0-.2.2-.3.2h0Z"/>
    <path class="st0" d="M33.5,30s0-.8-1.3-.8c0,0-1,.2-3.2-1.4,0,0-2.2-1.4-3.9-.2-1.7-1.2-3.9.2-3.9.2-2.2,1.7-3.2,1.4-3.2,1.4-1.2,0-1.3.8-1.3.8-.4.5-.2.7-.2.7l3.6,5.7c1.4-1.1,3.1-1.5,4.8-1.2h.2c1.7-.4,3.5,0,4.9,1.1l3.6-5.8s.2-.2-.2-.7"/>
    <path class="st1" d="M29.2,28.1c.8.7,1.8,1.1,2.8,1.2,1.3,0,1,.6,1,.6l-3.3,5.5c-2.8-1.8-4.6-1.1-4.6-1.1v-6.6c1.5-1.5,4,.3,4,.3M26.2,30.5h-.4v.2h.4v-.2ZM31.5,30.9h0c0-.1-.6-.5-.6-.5h0c0,.1.5.5.5.5ZM30.5,32.5v-.2c0,0-.4-.3-.4-.3v.2c0,0,.4.3.4.3ZM30.5,30.3v-.2c0,0-.6-.2-.6-.2h0c0,.1.5.4.5.4ZM29.7,33.9v-.2c0,0-.5-.3-.5-.3v.2c0,0,.5.3.5.3ZM29.6,31.8v-.2s-.6-.2-.6-.2v.2c0,0,.6.2.6.2ZM29.4,29.8v-.2c0,0-.6-.2-.6-.2v.2c0,0,.6.2.6.2ZM28.7,33.3v-.2l-.5-.2v.2l.5.2ZM28.4,31.3v-.2c0,0-.4-.2-.4-.2v.2c0,0,.4.2.4.2ZM28.3,29.3v-.2h-.6c0-.1,0,0,0,0h.6ZM27.5,33v-.2h-.6c0-.1,0,0,0,0h.6ZM27.5,30.9v-.2h-.6c0-.1,0,0,0,0h.6ZM27.2,29.2v-.2h-.6c0-.1,0,0,0,0h.6ZM26.5,32.7v-.2h-.6c0,0,0,0,0,0h.6ZM25.6,28.8h.4v.2h-.4v-.2Z"/>
    <path class="st0" d="M33.6,30.4l-3.6,5.7c-2.7-1.6-4.6-1.2-4.9-1.1-.3,0-2.2-.5-4.9,1.1l-3.5-5.7h0l3.6,5.7h0c2.8-1.6,4.6-1.2,5-1.1h0c.3,0,2.1-.5,4.9,1.1h0l3.6-5.7h0Z"/>
    <path class="st1" d="M20.3,35.9c1.5-.8,3.1-1.2,4.8-1h0c1.7-.2,3.3.2,4.8,1h0l3.5-5.7h0l-3.4,5.6h0l3.4-5.8h0l-3.5,5.8c-1.4-.8-3.1-1.1-4.7-.9-1.6-.2-3.3.1-4.7.9l-3.4-5.8h0l3.5,5.8h0l-3.4-5.6h0l3.5,5.7h0Z"/>
    <path class="st0" d="M25.1,34.7h0c.2,0,1.2-.4,3.5.4h0c-2.3-.9-3.3-.6-3.6-.5-.2-.1-1.3-.4-3.6.4h0c2.3-.8,3.3-.4,3.5-.3"/>
    <path class="st1" d="M21,28.1c-.8.7-1.8,1.1-2.9,1.2-1.3,0-1,.6-1,.6l3.3,5.5c2.7-1.8,4.5-1.1,4.5-1.1v-6.6c-1.5-1.5-4,.3-4,.3M24,30.5h.4v.2h-.4v-.2ZM18.8,30.9h0c0-.1.6-.5.6-.5h0c0,.1-.5.5-.5.5ZM19.8,32.5v-.2c0,0,.5-.3.5-.3v.2c0,0-.5.3-.5.3ZM19.8,30.3v-.2c0,0,.6-.2.6-.2v.2c0,0-.6.2-.6.2ZM20.6,33.9v-.2c0,0,.5-.3.5-.3v.2c0,0-.5.3-.5.3ZM20.7,31.8v-.2c0,0,.6-.2.6-.2v.2c0,0-.6.2-.6.2ZM20.9,29.8v-.2c0,0,.6-.2.6-.2v.2s-.6.2-.6.2ZM21.6,33.3v-.2h.6c0-.1,0,0,0,0h-.6ZM21.9,31.3v-.2s.6-.2.6-.2v.2c0,0-.6.2-.6.2ZM22,29.3v-.2h.6c0-.1,0,0,0,0h-.6ZM22.7,33v-.2h.6c0-.1,0,0,0,0h-.6ZM22.8,30.9v-.2h.6c0-.1,0,0,0,0h-.6ZM23.1,29.2v-.2h.6c0-.1,0,0,0,0h-.6ZM23.8,32.7v-.2h.6c0,0,0,0,0,0h-.6ZM24.8,28.8h-.4v.2h.4v-.2Z"/>
    <path class="st0" d="M43.9,9.8l-5,4.2c8,7.6,8.3,20.3.7,28.3-3.7,3.9-8.8,6.2-14.2,6.2-11-.1-19.9-9.2-19.8-20.2,0-5.3,2.3-10.4,6.1-14.2l-5.1-4.1C-1.6,20.4.1,35.5,10.5,43.7c10.4,8.2,25.4,6.5,33.6-3.9,7-8.8,6.9-21.3-.2-30"/>
    <path class="st0" d="M44.2,10.3s5,5.7,4.8,15.6c-.2,2.1-.5,4.1-1,6.1-1.1,3.2-3.4,9.6-12.5,14.5,0,0,12-6.8,12.4-19.2.1-4.2-.9-8.3-2.9-11.9l-.9-4.9Z"/>
    <path class="st0" d="M39.4,14.7c5.8,5.5,5.9,13.8,5.9,13.8,0,3.7-.9,7.3-2.9,10.5-3.6,6-10.1,9.7-17.1,9.7,4.2.5,8.5-.7,11.8-3.3,5.4-3.6,8.8-9.5,9.3-15.9.4-4.4-.6-8.9-2.9-12.7l-4.5-2.5.4.5Z"/>
    <path class="st0" d="M5.6,28.7c0,10.9,9,19.7,19.9,19.6,10.9,0,19.7-9,19.6-19.9,0-10.9-8.9-19.6-19.8-19.6-11,0-19.8,9-19.8,19.9"/>
    <path class="st0" d="M45.1,28.7c0,11-8.9,19.9-19.9,20-11,0-20-8.9-20-19.9,0-11,8.9-20,19.9-20,11,0,20,8.9,20,19.9Z"/>
    <path class="st0" d="M49.4,24.9c0,13.3-10.7,24-24,24S1.4,38.2,1.4,24.9,12.1.9,25.4.9s24,10.7,24,24Z"/>
    <line class="st0" x1="45.1" y1="15.1" x2="43.6" y2="16.7"/>
    <path class="st0" d="M26.5,48.9c-13.3.5-24.6-9.9-25.1-23.2,0-1.1,0-2.2,0-3.2.5-4.6,2.3-9,5.3-12.6"/>
    <path class="st0" d="M16.6,46.4c3.1,1.5,6.5,2.2,10,2"/>
    <path class="st0" d="M6.5,10.3S1.5,16,1.6,25.9c.2,2.1.5,4.1,1,6.1,1,3.2,3.3,9.6,12.5,14.5,0,0-12-6.8-12.4-19.2-.1-4.2.9-8.3,2.9-11.9l.9-4.9Z"/>
    <path class="st0" d="M25.4,48.6c-4.2.5-8.5-.7-11.8-3.3-5.4-3.6-8.8-9.5-9.3-15.9-.4-4.4.6-8.9,2.9-12.7l4.6-2.5"/>
    <line class="st0" x1="5.6" y1="15.1" x2="7.2" y2="16.7"/>
  </g>
  <g id="Layer_2">
    <text>
      <textPath startOffset="32%" xlink:href="#path"><tspan class="st3"><tspan x="0" y="0">الإدارة العامة لمركز البحوث والدراسات</tspan></tspan>
      </textPath></text>
  </g>
</svg>