<?xml version="1.0" encoding="UTF-8"?><svg id="Layer_1" xmlns="http://www.w3.org/2000/svg" viewBox="0 0 51 50"><defs><style>.cls-1{fill:#001a63;}.cls-2{stroke-width:.1px;}.cls-2,.cls-3{fill:none;stroke:#001a63;stroke-miterlimit:10;}.cls-3{stroke-width:.5px;}</style></defs><polygon class="cls-3" points="36.69 9.17 36.69 9.18 36.7 9.17 36.69 9.17"/><polygon class="cls-1" points="12.95 10.4 13.51 10.43 13.57 10.01 13.01 9.99 12.95 10.4"/><path class="cls-1" d="M15.14,8c0-.12,0-.25-.07-.38-.03-.18-.09-.36-.18-.53-.06-.1-.15-.19-.24-.26-.1-.08-.2-.14-.32-.18l-.05,.64c.13,.03,.25,.1,.35,.19l-1.1,.74-.53-.37-.07,.56,.23,.15-1.24,1c-.06,.05-.13,.1-.21,.14-.06,.01-.11,.01-.17,0-.14-.02-.27-.09-.35-.21-.08-.08-.14-.17-.19-.27,0,.05,0,.09,0,.14l.06,.26c.04,.2,.12,.38,.25,.53,.07,.1,.18,.18,.3,.21,.11,.05,.22,.05,.33,0l.14-.09,.13-.1,1.33-1.08v-.26l.18,.11"/><path class="cls-1" d="M15.75,8.56h.12c.11,.04,.23,.04,.34,0,.08-.05,.14-.12,.17-.21,.05-.12,.09-.24,.1-.37,.02-.18,.02-.36,0-.54-.03-.15-.09-.3-.16-.44-.06-.12-.14-.22-.24-.31-.13-.11-.28-.21-.44-.29l-.12,.6,.13,.06,.15,.08,.16,.1s.1,.07,.14,.11h0c.01,.1,.01,.2,0,.3-.01,.08-.04,.16-.08,.23-.07,.16-.19,.29-.34,.38l-.16,.06h-.18l.4,.2"/><polygon class="cls-1" points="18.95 4.35 19.23 4.48 19.47 4.11 18.96 3.86 18.8 4.12 18.52 3.98 18.3 4.35 18.8 4.6 18.95 4.35"/><polygon class="cls-1" points="14.95 9.14 15.26 9.15 15.34 8.72 14.77 8.68 14.72 8.98 14.41 8.95 14.35 9.37 14.9 9.42 14.95 9.14"/><path class="cls-1" d="M19.33,6.2l.1-.23,.11,.17,.69-.14,1-.19s0-.09,0-.14c0-.08,0-.16,0-.24v-.28c0-.05,0-.11,0-.16,0-.05,0-.11,0-.16h0v-.23l-.23-.75h.09l.1-.48-.41-.09h-.1s-.06-.03-.08-.06v-.06s0-.05,0-.08l-.15,.37v.08s-.01,.08,0,.12c.02,.06,.07,.1,.13,.1h0l.38,1.38-.57,.14-.68,.14-.35-.56-.36,.49,.13,.21-1.13,.45-1-.8-.08,.57,.56,.45-.56,.23h-.29c-.05-.02-.09-.05-.12-.1v.06c-.01,.11-.01,.21,0,.32,0,.07,.02,.14,.05,.21,0,.12,.11,.18,.2,.19,.05,.01,.11,.01,.16,0h.16l.75-.3v-.24l.18,.14"/><path class="cls-1" d="M22.27,4.32c0-.08,0-.16,0-.24l-.06-.31h0l.08-.12-.29-.77-.43,.69v.08l.11,.54,.13,.7v.49c0,.07,0,.14,0,.21v.21c.14-.17,.24-.37,.31-.58,.04-.23,.04-.47,0-.7l.15-.2Z"/><path class="cls-1" d="M24.9,4.39c-.04-.1-.1-.19-.16-.28-.07-.12-.19-.2-.33-.22-.12,.01-.24,.08-.3,.19,0,0-.07,.1-.11,.15-.04,.05-.07,.1-.09,.16-.12,.2-.19,.42-.2,.65,0,.08,.03,.16,.07,.23,.04,.06,.09,.12,.16,.15,.06,.01,.11,.01,.17,0,.1,.01,.19,.01,.29,0h.26c-.13,.27-.41,.44-.71,.45-.1,.01-.2,.01-.3,0h0c.06,.09,.12,.17,.18,.25l.16,.17c.08,.08,.18,.13,.29,.14,.12-.01,.23-.07,.31-.17,.15-.16,.28-.35,.36-.56,.08-.2,.12-.41,.12-.62,.01-.13,.01-.26,0-.39-.05-.11-.1-.21-.17-.3Zm-.46,.51h-.06c-.12,.01-.23-.08-.24-.2,0-.01,0-.03,0-.04,0-.06,.02-.13,.07-.17,.04-.05,.09-.07,.15-.07,.12,0,.21,.13,.25,.48h-.17Z"/><polygon class="cls-1" points="29.49 6.77 29.32 6.51 28.92 6.7 29.22 7.18 29.49 7.05 29.66 7.3 30.03 7.11 29.75 6.64 29.49 6.77"/><polygon class="cls-1" points="36.05 7.17 36.13 7.46 36.57 7.4 36.43 6.85 36.13 6.89 36.05 6.6 35.64 6.66 35.76 7.2 36.05 7.17"/><path class="cls-1" d="M31.74,6.21s-.01-.06,0-.09l.06-.12,.66-1.68-.69,.33-.55,1.35h-.06l-1-.38v-.62l-.58,.26v.28l-1.13-.37,.08-.48c.03-.09,.03-.18,0-.27-.06-.06-.14-.1-.23-.11-.26-.03-.51-.03-.77,0-.2,.03-.4,.07-.6,.12-.13,.03-.26,.08-.37,.16-.09,.08-.16,.17-.22,.28-.08,.12-.15,.25-.21,.39v.15s0,.1,0,.15l-.13,1.08v.12l.34-.33,.11-.15c.04-.06,.07-.13,.09-.2v-.22l.05-.73c.13-.08,.27-.15,.41-.21l-.11,.4,1.11,.86,.23-.36,.53,.11h0l.77,.22,.2-.14v.2l.76,.23,.41,.16,.1-.11c-.01,.07,.01,.13,.06,.18l.19,.09,.82,.32h0l.89,.47,.24-.11v.23l1,.52h0l.66,.45,.23-.07v.19l.59,.41,.76,.61,.13-.06,.21-.13,.22-.15,.13-.09,.1-.12h0l.06-.08,.08-.15,.4-.57v.08l.43-.23-.19-.37v-.09s0-.07,0-.11v-.13l-.37,.12h-.08s-.08,.03-.11,.06c-.04,.05-.04,.11,0,.16h0l-.74,1.09-1.03-.61,.21-.65-.55,.11-.08,.26-.1-.06-1.33-.81h.07l.31-.16,.17-.12s.09-.08,.11-.14c.06-.12,.06-.25,0-.37-.07-.13-.18-.24-.31-.31l-.29-.15-.38-.13-.58,.44h0c.07,.03,.12,.08,.17,.14,.05,.06,.09,.12,.12,.19,0,.04,0,.09,0,.13,0,.06,0,.12,0,.18m-5.11-1.95v.07h0l-.11,.32-.67-.54c.08,0,.17,0,.25,0,.12-.02,.25-.02,.37,0,.06-.03,.13,0,.16,.06,.01,.03,.01,.06,0,.09Z"/><path class="cls-1" d="M38.36,8.69v.07l-.36,.43-.44,.55-.16,.19-.16,.19-.15,.16-.15,.14c.22,0,.44-.05,.64-.14,.2-.11,.39-.26,.54-.44l.14-.16,.15-.18,.2-.25h.15l.42-.63-.82,.07Z"/><path class="cls-3" d="M27.46,40.84c-.48-.85-1.11-1.62-1.85-2.26,.27-.14,.55-.25,.84-.32,.06-.01,.12-.05,.15-.11,.03-.06,.03-.14,0-.2l-.33-.63c-.05-.08-.14-.12-.23-.11-.59,.11-1.17,.3-1.7,.59h-.06l-.89-.37c-.09-.04-.19-.01-.25,.06l-.48,.61c-.03,.05-.03,.12,0,.17,0,.06,.05,.11,.1,.14l.45,.28c-.59,.53-1.07,1.16-1.42,1.87-.02,.05-.02,.11,0,.16,.02,.05,.06,.1,.11,.12l.76,.33h.08c.07,0,.14-.03,.18-.09,.45-.67,1-1.27,1.63-1.77l.06,.07c.73,.55,1.34,1.22,1.81,2,.04,.06,.11,.1,.18,.1h.08l.71-.29c.06-.02,.1-.06,.12-.12,.03-.05,.03-.12,0-.17m-4.09-3l.38,.15-.38,.27-.22-.14,.22-.28Zm-.74,2.82l-.39-.17c.78-1.44,2.12-2.49,3.71-2.89l.13,.26c-1.42,.52-2.63,1.49-3.46,2.75m4,.29c-.44-.66-.97-1.26-1.58-1.77l.31-.19c.62,.53,1.16,1.15,1.6,1.83l-.33,.13Z"/><path class="cls-2" d="M22.33,37.64s.09,.01,.13,0h0s.06,.07,.1,.1l.23,.11h.18c.05-.03,.1-.07,.12-.13l.09-.32s.01-.07,0-.1c-.15-.72-.45-1.41-.89-2-.08-.06-.19-.06-.27,0h0c-.09-.16-.2-.31-.32-.45-.06-.06-.14-.09-.22-.07-.08,.02-.14,.09-.15,.17-.03,.12-.03,.23,0,.35-.01-.03-.03-.06-.06-.09-.13-.12-.18-.17-.28-.17h0c-.06-.24-.18-.46-.33-.66-.07-.09-.21-.1-.3-.03-.06,.05-.08,.12-.07,.19v.62c-.2-.81-.53-1.58-1-2.27-.08-.07-.19-.07-.27,0h0c-.21-.39-.35-.39-.43-.39-.06-.02-.11-.02-.17,0-.05,.04-.08,.09-.09,.15-.11-.24-.25-.46-.4-.67-.06-.08-.17-.11-.27-.07h0c-.06-.22-.14-.44-.25-.64v-.05s-.11-.06-.17-.06c-.16,0-.27,.15-.37,.39-.08-.18-.17-.35-.27-.51-.05-.08-.15-.12-.24-.09h-.06c-.02-.19-.08-.38-.16-.55-.04-.07-.12-.12-.2-.11-.08,0-.15,.06-.18,.14l-.15,.39c.1-.42,.13-.85,.09-1.28,0-.1-.09-.18-.19-.18h-.09c0-.16,0-.31,0-.47,0-.08-.05-.15-.12-.18-.06-.04-.15-.04-.21,0-.14,.1-.28,.21-.4,.33,.03-.4,.03-.81,0-1.21,0-.1-.1-.19-.2-.19h-.06c.01-.12,.01-.23,0-.35,0-.07-.05-.13-.11-.16-.06-.04-.14-.04-.2,0-.09,.05-.18,.11-.25,.18,.19-.42,.34-.86,.44-1.31,0-.1-.08-.18-.17-.2h-.07c.09-.24,.13-.49,.13-.75,0-.07-.05-.14-.12-.17-.06-.04-.15-.04-.21,0-.09,.06-.18,.12-.26,.2,.12-.26,.22-.54,.27-.82,.01-.1-.04-.2-.14-.24-.04,0-.09,0-.13,0,.07-.16,.12-.32,.17-.49,.02-.1-.03-.2-.12-.25h-.09c.14-.25,.24-.51,.31-.79,0-.24,.08-.39,.09-.48h0v-.19c-.04-.05-.1-.08-.17-.08-.09,0-.13,0-.17,.08-.16,.02-.32,.06-.47,.13,.29-.35,.54-.74,.74-1.15,.03-.09,0-.2-.08-.26h-.06c.11-.11,.2-.24,.28-.38,.05-.07,.05-.17,0-.24-.07-.05-.16-.05-.23,0-.05,0-.66,.28-1.26,.57h0c.86-.34,1.51-1.06,1.77-1.95,.02-.09-.03-.19-.11-.23h0s.01-.08,0-.12c-.05-.07-.15-.1-.23-.07l-.75,.22c1.16-.61,1.26-2.39,1.26-2.47,0-.1-.06-.18-.15-.21-.09-.03-.19,0-.24,.08l-.06,.09c.01-.07,0-.14-.05-.19-.07-.05-.17-.05-.24,0-.5,.33-.97,.72-1.4,1.14-.19-.43-.48-.8-.83-1.11-.07-.06-.18-.06-.25,0h-.28c-.09,0-.17,.06-.2,.15-.19,.57-.28,1.17-.28,1.77l-.33-.21c-.07-.04-.15-.04-.22,0-.07,.05-.09,.13-.07,.21,.04,.16,.08,.32,.14,.48h-.04c-.1,0-.19,.1-.19,.2-.02,.45,.04,.9,.19,1.32-.03-.01-.05-.01-.08,0-.05,.02-.1,.05-.13,.1v-.12c-.01-.11-.1-.19-.21-.18-.11,0-.2,.08-.21,.19-.07,.77,.02,1.55,.27,2.29-.11-.06-.24-.09-.37-.09-.1,0-.19,.02-.28,.07-.1,.05-.14,.17-.09,.27h0c.04,.1,.09,.19,.15,.27h-.05c-.1,.04-.14,.15-.11,.25,.16,.48,.38,.94,.67,1.36l-.68-.16c-.08,0-.16,.02-.21,.08-.05,.07-.05,.16,0,.23,0,.08,.09,.16,.14,.24-.08,.05-.11,.15-.07,.24,.19,.45,.46,.86,.8,1.21h-.54c-.08,0-.15,.04-.19,.11-.04,.07-.04,.16,0,.23l.11,.13h-.06c-.09,.07-.11,.19-.06,.29,.36,.55,.8,1.05,1.3,1.48l-.84-.08c-.08,0-.16,.04-.21,.11-.05,.07-.05,.17,0,.24,.07,.09,.15,.19,.24,.27h-.05c-.07,.09-.07,.21,0,.3,.87,.99,1.97,1.74,3.2,2.2h0c-.32,.21-.68,.35-1.06,.43h0c-.1-.01-.2,.05-.23,.15-.03,.1,.01,.21,.11,.25,.06,.04,.13,.07,.2,.08l-.05,.06c-.05,.07-.05,.17,0,.24,.23,.26,.53,.43,.86,.51l-.47,.16c-.08,.02-.14,.09-.16,.17-.02,.08,.02,.17,.09,.21,.08,.06,.16,.11,.25,.16-.03,.02-.06,.05-.07,.08-.05,.09-.03,.2,.05,.26,.83,.74,1.89,1.17,3,1.23l-.63,.5c-.06,.06-.09,.15-.07,.23,.02,.08,.09,.14,.18,.15h.34v.05c0,.1,.06,.2,.16,.23,.39,.12,.79,.18,1.19,.18h.16c-.21,.24-.48,.44-.78,.56-.08,.03-.14,.11-.14,.2-.05,.03-.09,.08-.11,.14-.02,.11,.04,.22,.14,.26,.59,.22,1.22,.34,1.86,.35h0c.23,0,.47-.02,.7-.06l-.32,.37c-.05,.07-.05,.17,0,.24,.04,.07,.11,.11,.19,.11h0s.44-.08,1-.24c-.03,.07-.03,.14,0,.21,.03,.08,.1,.14,.19,.14h-.02c1.04-.22,2.03-.65,2.9-1.26,.05-.04,.08-.1,.09-.16l.34,.33Zm-3.74-2.94l-.16-.12c.01-.19,.01-.39,0-.58,.09,.26,.15,.5,.2,.7m-.33,.61l.13,.1c-.54,.33-1.14,.55-1.77,.64,.6-.11,1.16-.36,1.64-.74m-.6-1.24h0c0-.11,0-.22,0-.33,0,.13,.05,.25,.07,.36m-.85-.82l-.17-.15v-.73c.09,.32,.15,.63,.2,.88m-1-1.95c0,.29,.07,.63,.09,1l-.34-.4c.06-.11,.14-.29,.25-.56m-1-1.76l.07-.09c-.06,.4-.17,.88-.26,1.24l.19-1.15Zm.37,3l.14,.17h-.93c-.45,0-.9-.02-1.35-.08h.51c.55,0,1.09-.04,1.63-.13m-1.12-2.38v.1h0v-.06m-.31-1.9c.04-.13,.1-.25,.18-.36-.09,.53-.21,1.05-.36,1.56l-.19-.32c.14-.28,.26-.57,.36-.86h0m-.11-2.67c-.28,.72-.63,1.41-1.06,2.05l-.15-.37,1.21-1.68Zm-.6,2.57c-.03,.06-.06,.13-.08,.2h0s.07-.1,.1-.16m-.66-3c-.19,.26-.36,.48-.5,.64v-.15c.19-.15,.37-.31,.54-.49m-.61-.31v-.2c.22-.13,.42-.29,.6-.47-.22,.26-.42,.5-.58,.67m.53,1.52l-.13,.18h0l.14-.14m.2,2.51l.12,.19c-.63-.16-1.23-.44-1.76-.81,.53,.25,1.08,.46,1.64,.62m.77-6.63c-.41,.64-.94,1.19-1.56,1.64v-.16l1.15-1.13h0c.11-.14,.24-.25,.39-.33m-1.61,.59v-.25c.27-.2,.54-.42,.79-.65-.29,.34-.58,.66-.8,.9m2-6.21c-.12,.4-.36,.74-.68,1l.68-1Zm-.79-.2l-.4,.67v-.27l.45-.4m-.49,1.87h0m0,.46l.81-.25c-.31,.27-.64,.51-1,.71l.19-.46Zm.38,1.52c-.36,.36-.82,.79-1.25,1.17v-.55c.41-.23,.82-.43,1.25-.62m-1-3.17c0,.05,0,.11,0,.16l-.28-.95c.13,.25,.22,.51,.26,.79m-.93-.9l.72,2.37-.15,.44c-.64-.79-.85-1.84-.57-2.81m0,5.13v.21c-.14-.2-.27-.4-.38-.62,.12,.12,.24,.23,.38,.33m-.21,1.15v.47c-.49-.43-.84-1-1-1.63,.22,.48,.57,.88,1,1.18m-1.44-.37s.05,0,.08,0c.36,.67,.88,1.25,1.52,1.67v.3c-.58-.61-1.1-1.28-1.55-2m-.15,2.14l.27,.06c.27,.35,.55,.68,.86,1-.42-.28-.8-.62-1.13-1m.09,1.84h.11c.75,.62,1.6,1.13,2.5,1.51l.07,.12c-.95-.42-1.82-.98-2.6-1.66m.68,2.35c.81,.77,1.88,1.22,3,1.25l.23,.37c-1.27-.34-2.47-.9-3.55-1.65l.32,.03Zm1.11,1.53c.86,.33,1.75,.62,2.64,.87l.2,.24c-1.01-.19-1.97-.57-2.84-1.11m.89,1.73l.39-.2c.44,.17,.9,.28,1.37,.3h-.19c-.53,0-1.05-.03-1.57-.1m.4,1.41c.68,.08,1.36,.13,2.05,.14,.45,0,.89-.03,1.33-.12l.38,.39c-.32,0-.79,.07-1.32,.07-.87,.04-1.75-.1-2.56-.42l.12-.06m.62,1c.73,.15,1.47,.22,2.21,.23,.52,0,1.04-.05,1.54-.18l.14,.14c-.58,.22-1.18,.33-1.8,.34h0c-.73,0-1.45-.18-2.09-.53m2,1.38h-.17l.21-.17c.81-.05,1.61-.27,2.33-.65l.14,.11c-.75,.49-1.63,.74-2.52,.72m1.11,1.43c.16-.12,.29-.27,.41-.43,.8-.09,1.57-.38,2.24-.84l.33,.2c-.82,.73-1.9,1.12-3,1.07m2.06,1h0l.37-.08-.4,.11m-.75-.54c.84-.16,1.61-.55,2.23-1.13l.14,.09c-.67,.57-1.5,.92-2.37,1m1.19,.42c.67-.23,1.27-.62,1.76-1.13l.18,.11c-.57,.47-1.23,.81-1.94,1m1.27,.06c.42-.24,.82-.5,1.21-.79l.11,.08c-.42,.27-.86,.5-1.32,.71"/><polygon class="cls-3" points="23.37 38.52 24.2 37.96 23.31 37.59 22.83 38.19 23.37 38.52"/><path class="cls-2" d="M26.08,37.42c-1.77,.39-3.27,1.56-4.08,3.19l.75,.32c.84-1.39,2.16-2.41,3.71-2.88l-.38-.63Z"/><path class="cls-2" d="M25.41,38.69l-.72,.49c.74,.55,1.37,1.23,1.87,2l.71-.29c-.48-.85-1.11-1.61-1.86-2.24"/><path class="cls-2" d="M12.21,17.27c-.12-.68-.48-1.29-1-1.74l.87,3c.24-.27,.1-1.3,.1-1.3"/><path class="cls-2" d="M11.73,19.6h0l.27-.77-1-3.17c-.89,2.85,.64,3.94,.64,3.94"/><path class="cls-2" d="M13.7,15.53c-.51,.36-1,.76-1.45,1.2l.17,1,1.28-2.2Z"/><path class="cls-2" d="M14.14,15.6l-1.66,2.47c1.57-.22,1.66-2.47,1.66-2.47"/><path class="cls-2" d="M12.3,18.57l-.37,1.08c.78-.36,1.47-.9,2-1.58l-1.63,.5Z"/><path class="cls-2" d="M11.75,20.29s1.93-.49,2.27-2c-.63,.69-1.37,1.27-2.2,1.7l-.07,.3Z"/><polygon class="cls-2" points="11.61 20.71 12.25 20.29 11.68 20.45 11.61 20.71"/><path class="cls-2" d="M11.54,22.14c.82-.68,1.58-1.43,2.27-2.24-.75,.32-1.49,.69-2.2,1.1l-.07,1.14Z"/><path class="cls-2" d="M11.45,23.37c.85-.84,1.6-1.78,2.21-2.8,0,0-1.93,1.78-2.18,1.89l-.03,.91Z"/><path class="cls-2" d="M11.51,24.27c.94-.58,1.7-1.41,2.21-2.39-.4,.03-.76,.23-1,.55l-1.22,1.19v.65Z"/><path class="cls-2" d="M13.66,22.34c.24-1.17,0-.06,0-.06,0,0-1.51,2.07-2.12,2.21l.07,.84s1.82-1.83,2.05-3"/><path class="cls-2" d="M13.56,23.37c-.57,.8-1.24,1.53-2,2.16l.19,.7c.77-.83,1.36-1.8,1.76-2.86"/><path class="cls-2" d="M13.66,24.12c-.49,.82-1.07,1.59-1.73,2.28l.18,.61c.69-.86,1.21-1.84,1.55-2.89"/><path class="cls-2" d="M14,25c-.16,.1-.3,.23-.42,.37l-1.35,1.9,.35,.85s1.42-2.2,1.42-3.12"/><path class="cls-2" d="M14.09,25.91s-.86,1.59-1.37,2.37l.26,.59c.45-.97,.82-1.97,1.11-3"/><path class="cls-2" d="M13.56,28.19c-.11,.31-.24,.61-.4,.9,.15,.3,.31,.59,.5,.87,.28-.83,.45-1.7,.53-2.57-.3,.18-.53,.46-.63,.8"/><path class="cls-2" d="M13.77,30.16l.42,.63c.17-.94,.26-1.9,.26-2.86,0,0-.23,1.26-.34,1.56,0,0-.24,.73-.34,.67"/><path class="cls-2" d="M14.69,31.29c.23-.74,.39-1.51,.46-2.29-.21,.13-.39,.31-.53,.51l-.24,1.46,.31,.32Z"/><path class="cls-2" d="M15.09,31.75c.22-.68,.33-1.4,.32-2.12l-.54,1.85,.22,.27Z"/><path class="cls-2" d="M15.31,31.88l.86,1c-.02-.78-.12-1.56-.3-2.32-.15,.46-.33,.9-.56,1.32"/><path class="cls-2" d="M17.11,33.83c-.09-.92-.35-1.82-.77-2.65l.1,2,.67,.65Z"/><path class="cls-2" d="M17.4,34.14l.56,.41c-.15-1.07-.42-2.13-.78-3.15,0,0-.07-.07-.24,.35,.23,.78,.38,1.58,.46,2.39"/><path class="cls-2" d="M18.2,34.69l.73,.51c-.21-1.09-.61-2.14-1.18-3.1,.27,.84,.42,1.71,.45,2.59"/><path class="cls-2" d="M19.6,35.65s-.64-3.26-1.07-3c.34,.85,.55,1.74,.62,2.65l.45,.35Z"/><path class="cls-2" d="M19.9,35.76l.5,.37c-.25-1.1-.66-2.15-1.22-3.13,.4,.88,.64,1.83,.72,2.79"/><path class="cls-2" d="M21,36.53c0-.72-.18-1.42-.51-2.06l.12,1.85,.39,.21Z"/><path class="cls-2" d="M21.3,36.67l.58,.37c-.14-.59-.37-1.16-.67-1.69l.09,1.32Z"/><path class="cls-2" d="M21.21,35.35h0s-.32-.29,0,0"/><path class="cls-2" d="M21.69,35.4c.24,.54,.37,1.13,.4,1.72l.39,.3c-.04-.9-.34-1.77-.87-2.5-.03,.16,0,.33,.08,.48"/><path class="cls-2" d="M22.21,35.42c.28,.67,.46,1.38,.51,2.11l.23,.11,.1-.31c-.14-.69-.43-1.34-.84-1.91"/><path class="cls-2" d="M11.61,19.83c-.58-.63-.96-1.41-1.1-2.25,0,0-.27-.19-.38-.25,.26,1.04,.71,2.02,1.32,2.9l.16-.4Z"/><path class="cls-2" d="M11.3,21.1v-.6c-.68-.67-1.16-1.51-1.39-2.43-.02,1.14,.49,2.23,1.39,2.93"/><path class="cls-2" d="M11.3,22.39v-1.05c-.54-.42-.97-.97-1.25-1.59,.12,.97,.56,1.87,1.25,2.56"/><path class="cls-2" d="M11.28,23.36l-.1-.94c-1.32-.57-1.87-2.78-1.87-2.78,.1,3.08,2,3.75,2,3.75"/><path class="cls-2" d="M11.15,23.79c-.63-.41-1.14-.98-1.48-1.65-.17-.13-.4-.17-.6-.1,.57,1.03,1.3,1.96,2.17,2.76l-.09-1.01Z"/><path class="cls-2" d="M11.54,25.91l-.23-.85c-.91-.65-1.68-1.48-2.24-2.45,.57,1.27,1.41,2.4,2.47,3.3"/><path class="cls-2" d="M11.75,26.52l-.14-.29c-.72-.59-1.38-1.26-1.94-2l-.86-.19c.77,1.04,1.78,1.88,2.94,2.45"/><path class="cls-2" d="M12,27.39l-.18-.55s-2.49-1.29-2.92-2.25c.65,1.29,1.75,2.29,3.1,2.8"/><path class="cls-2" d="M9,26c.91,1.25,3.6,2.34,3.6,2.34l-.45-.76c-.94-.39-1.81-.93-2.59-1.58h-.56Z"/><path class="cls-2" d="M13.1,29.36l-.45-.69c-1.38-.36-2.64-1.09-3.65-2.1,.94,1.46,2.44,2.47,4.14,2.79"/><path class="cls-2" d="M13.83,30.56l-.58-.93c-2.3-.22-3-1.25-3-1.25l-1-.1c1.05,1.39,4.58,2.28,4.58,2.28"/><path class="cls-2" d="M14,30.79s-3.55-.94-4.57-1.92c1.35,1.49,3.2,2.43,5.19,2.65l-.62-.73Z"/><path class="cls-2" d="M15.15,32.1l-.39-.32c-.77,0-1.54-.12-2.26-.39-.36,.23-.77,.39-1.19,.46,0,0,.9,.47,3.84,.25"/><path class="cls-2" d="M15.74,32.88s-.42-.6-.48-.59c-1.23,.19-2.49,.19-3.72,0,.68,.9,4.2,.59,4.2,.59"/><path class="cls-2" d="M16.72,33.83l-.72-.83c-1.15,.17-2.33,.17-3.48,0-.19,.1-.39,.18-.6,.23,1.47,1.06,4.85,.57,4.85,.57"/><path class="cls-2" d="M17.39,34.47l-.45-.47c-1.85,.58-4.83-.25-4.83-.25,1.47,1.26,3.54,1.53,5.28,.7"/><path class="cls-2" d="M18.05,34.92l-.49-.37c-.74,.43-1.56,.67-2.41,.72l-.69,.55c1.27,.21,2.57-.11,3.59-.9"/><path class="cls-2" d="M18.77,35.42l-.55-.4c-.47,.8-3.25,1.11-3.25,1.11,1.31,.34,2.7,.08,3.8-.71"/><path class="cls-2" d="M16.59,36.45c-.25,.36-.6,.63-1,.79,1.46,.23,2.94-.24,4-1.27l-.67-.42c-.68,.51-1.49,.82-2.34,.9"/><path class="cls-2" d="M20.32,36.42l-.53-.3c-1.48,1.63-4.3,1.3-4.3,1.3,1.66,.68,3.57,.29,4.83-1"/><path class="cls-2" d="M21.07,36.86l-.56-.33c-.59,.66-1.37,1.11-2.24,1.29l-.52,.59s2.4-.41,3.32-1.55"/><path class="cls-2" d="M19.34,38.16l-.41,.36c.93,0,2.84-1.23,2.84-1.23l-.52-.36c-.61,.46-1.24,.87-1.91,1.23"/><path class="cls-2" d="M41.52,23.87c-.06-.07-.14-.1-.23-.08l-.72,.15c.3-.41,.54-.85,.71-1.33,.03-.1-.02-.22-.12-.26h0c.06-.09,.12-.18,.16-.28,.05-.1,0-.23-.1-.28h0c-.09-.04-.2-.06-.3-.06-.13,0-.26,.03-.38,.09,.26-.75,.36-1.55,.28-2.34-.02-.11-.11-.19-.22-.2-.11,0-.21,.08-.23,.19,0,.04,0,.08,0,.12-.03-.05-.07-.09-.13-.1h-.09c.17-.48,.23-.99,.17-1.49,0-.1-.09-.19-.19-.2h-.13c.09-.27,.14-.46,.15-.49,.03-.11-.03-.23-.14-.26-.06-.02-.12,0-.17,.02-.12,.06-.24,.13-.35,.21,0-.62-.1-1.23-.3-1.81-.03-.09-.11-.15-.21-.15h.09s0-.03,0-.05c-.08-.05-.18-.05-.26,0-.37,.31-.66,.69-.86,1.12-.46-.43-.95-.82-1.47-1.16-.09-.03-.19,0-.25,.06-.03,.06-.03,.12,0,.18l-.06-.08c-.06-.08-.16-.12-.26-.09-.09,.03-.15,.12-.15,.22,0,.08,.1,1.87,1.32,2.49l-.78-.23c-.09-.03-.18,0-.24,.07-.04,.04-.06,.09-.06,.15h0c-.09,.04-.13,.14-.11,.23,.26,.92,.95,1.67,1.85,2h0c-.62-.29-1.26-.55-1.31-.57-.07-.05-.17-.05-.24,0-.05,.07-.05,.17,0,.24,.07,.14,.17,.27,.29,.38h-.06c-.09,.06-.12,.17-.08,.26,.17,.43,.39,.84,.66,1.22-.16-.08-.33-.12-.5-.13,0-.09-.08-.09-.18-.09-.07,0-.13,.03-.17,.08v.2h0c.02,.17,.06,.34,.1,.5,.06,.28,.17,.54,.32,.78h-.1c-.1,.04-.15,.15-.12,.25,.04,.17,.1,.33,.18,.49-.05-.01-.1-.01-.15,0-.09,.04-.15,.13-.14,.23,.06,.29,.16,.56,.28,.83-.08-.08-.17-.14-.27-.2-.1-.07-.24-.04-.3,.06-.02,.03-.03,.07-.04,.11,0,.26,.05,.51,.14,.75-.03-.01-.05-.01-.08,0-.1,.01-.17,.1-.17,.2,.09,.52,.26,1.02,.48,1.49-.08-.07-.17-.13-.26-.19-.07-.04-.14-.04-.21,0-.06,.03-.1,.09-.11,.16-.01,.12-.01,.23,0,.35h-.1c-.11,0-.2,.08-.21,.19-.03,.41-.03,.81,0,1.22-.13-.12-.27-.23-.41-.33-.07-.04-.16-.04-.23,0-.07,.03-.12,.1-.12,.18-.02,.16-.02,.31,0,.47-.03-.01-.07-.01-.1,0-.1,0-.19,.08-.2,.18-.04,.43,0,.87,.09,1.29l-.15-.4c-.03-.08-.1-.13-.19-.14-.08,0-.16,.04-.21,.11-.08,.17-.13,.36-.16,.55h-.06c-.1-.03-.2,0-.26,.09-.11,.17-.2,.34-.28,.52-.11-.25-.22-.4-.39-.4-.06,0-.12,.02-.17,.06v.05c-.11,.21-.2,.42-.27,.65h0c-.1-.04-.22,0-.28,.08-.16,.21-.3,.44-.42,.68,0-.06-.04-.12-.09-.15-.05-.04-.12-.06-.18-.06-.08,0-.23,0-.45,.4h0c-.08-.07-.2-.07-.28,0-.49,.69-.84,1.47-1.05,2.29v-.62c0-.09-.04-.18-.13-.22-.08-.04-.17-.04-.25,0-.16,.2-.28,.42-.35,.67h-.07c-.1,0-.15,.05-.3,.17-.02,.03-.04,.06-.05,.09,.02-.12,.02-.23,0-.35-.01-.08-.08-.15-.16-.17-.08-.02-.17,0-.23,.07-.13,.14-.24,.29-.33,.45h0c-.08-.06-.2-.06-.28,0-.45,.59-.77,1.27-.92,2,0,.04,0,.07,0,.11l.1,.32s.05,.09,.1,.11c0,.18,.05,.6,1.14,.82h1v-.1l.87,.1h.31c.32,.12,.66,.19,1,.21h.02c.09,0,.18-.05,.21-.14,.04-.07,.04-.15,0-.22,.35,.1,.7,.18,1.06,.25h0c.08,0,.16-.04,.2-.11,.06-.08,.06-.18,0-.26l-.35-.34c.25,.04,.51,.06,.76,.06h0c.66,0,1.31-.12,1.93-.35,.12,0,.21-.11,.21-.23,0-.03,0-.05-.02-.08-.02-.06-.06-.11-.12-.14,0-.09-.05-.17-.14-.2-.31-.12-.59-.31-.81-.56h-.11c.4,0,.8-.06,1.18-.17,.1-.03,.16-.13,.16-.23,0-.02,0-.03,0-.05h.36c.08-.02,.15-.08,.18-.16,.03-.08,0-.18-.07-.23l-.65-.5c1.14-.05,2.24-.49,3.11-1.23,.08-.06,.1-.17,.05-.26-.02-.03-.04-.06-.07-.08,.09-.05,.18-.1,.26-.16,.07-.05,.1-.13,.09-.21-.02-.09-.08-.15-.17-.17l-.43-.14c.34-.07,.66-.25,.9-.51,.06-.07,.06-.17,0-.24-.01-.02-.04-.05-.06-.06,.08-.02,.15-.04,.22-.08,.09-.05,.14-.15,.11-.25-.03-.1-.13-.17-.24-.15h0c-.39-.08-.76-.22-1.1-.43h0c1.27-.46,2.4-1.21,3.32-2.2,.08-.08,.08-.22,0-.3h0c.09-.08,.17-.18,.25-.27,.05-.07,.05-.17,0-.24-.05-.08-.13-.12-.22-.11l-.82,.08c.51-.43,.96-.93,1.34-1.48,.06-.1,.03-.22-.06-.29h-.06l.11-.13c.05-.07,.05-.16,0-.23-.04-.07-.11-.11-.19-.11h-.59c.36-.36,.65-.78,.85-1.24,.04-.09,0-.19-.08-.24l.16-.25c.05-.07,.05-.16,0-.23m-.91-1.57h.09c-.47,.72-1.01,1.39-1.61,2v-.3c.62-.42,1.13-.98,1.49-1.63m-.48-.85c-.16,.63-.51,1.2-1,1.64v-.45c.43-.3,.78-.71,1-1.19m-.64-.32c-.12,.22-.25,.43-.39,.63v-.29c.14-.1,.27-.21,.39-.34m-.6-4.88c.29,.98,.07,2.03-.59,2.81l-.16-.44,.75-2.37Zm-.64,6.42c-.23-.24-.53-.56-.82-.9,.33,.28,.63,.53,.81,.65v.25Zm-.35-5.52c.03-.28,.12-.55,.26-.79l-.28,.95c0-.05,0-.11,0-.16m-.46,1h0m0-1.47v.27l-.42-.67,.47,.4m-1.29-.2l.71,1c-.33-.26-.58-.6-.71-1m.46,1.88l.84,.25,.17,.46c-.36-.2-.69-.44-1-.71m1.51,2.59v.55c-.45-.38-.93-.81-1.3-1.16,.45,.2,1,.44,1.26,.61m-1,1.48h0l1.2,1.12v.17c-.64-.44-1.19-1-1.62-1.65,.15,.09,.29,.2,.4,.34m.59,4l-.13-.18c.05,.05,.1,.1,.15,.14l-.02,.04Zm1.36,1.71c-.55,.37-1.17,.65-1.82,.81l.13-.19c.58-.15,1.15-.36,1.69-.62m-1.57-3.1c.17,.18,.36,.35,.56,.49v.15c-.19-.2-.36-.42-.52-.64m0-1c.19,.18,.39,.34,.62,.47v.21c-.17-.18-.39-.41-.61-.68m-.09,3.1l-.15,.36c-.44-.64-.81-1.33-1.09-2.05l1.24,1.69Zm-.52,1h0c-.03-.06-.06-.13-.08-.2,0,.06,.07,.11,.1,.16m-.84-.06h0c.11,.29,.23,.58,.38,.85l-.21,.32c-.15-.48-.27-.97-.37-1.46,.08,.1,.14,.22,.18,.35m-.28,2h0v-.04m-.82-.66l.2,1.15c-.12-.4-.21-.82-.28-1.23l.07,.08m-.38,3c.56,.09,1.12,.14,1.69,.13h.52c-.46,.06-.93,.08-1.39,.08h-1l.14-.17m-.65-1.22c.07,.19,.16,.38,.26,.56l-.36,.4c0-.33,.06-.67,.1-1m-.81,1.07v.73l-.17,.15c.05-.25,.12-.57,.21-.88m-1,1.34v.33h0c0-.11,0-.24,.07-.36m-.69,1.6c.5,.37,1.08,.63,1.7,.74-.65-.1-1.27-.31-1.84-.64l.14-.1Zm-.2-1.29c-.01,.19-.01,.39,0,.58l-.18,.12,.21-.7m-3,3.2c.4,.28,.82,.55,1.25,.79-.47-.21-.93-.45-1.37-.71l.12-.08Zm.56-.3l.19-.11c.51,.51,1.13,.89,1.81,1.12-.73-.19-1.41-.53-2-1m2.05,1l.38,.09h0l-.43-.08m-1.26-1.47l.15-.08c.65,.58,1.44,.97,2.3,1.12-.9-.07-1.76-.42-2.45-1m.73-.45l.33-.2c.7,.46,1.49,.75,2.32,.84,.13,.16,.27,.3,.43,.42-1.12,.03-2.2-.37-3.04-1.1m4.23-.37c-.92,.02-1.83-.23-2.61-.72l.14-.1c.76,.38,1.58,.6,2.42,.65l.22,.17h-.17m-.13-.83h.09c-.64,0-1.27-.12-1.87-.34l.15-.14c.52,.13,1.05,.19,1.59,.18,.77,0,1.54-.08,2.3-.22-.67,.34-1.42,.52-2.17,.52m.3-1.08c-.55,0-1,0-1.37-.07l.4-.39c.45,.09,.91,.13,1.37,.12,.71,0,1.42-.05,2.12-.14l.13,.06c-.85,.31-1.75,.45-2.65,.42m2.94-1.89c-.54,.07-1.09,.1-1.63,.1h-.21c.49-.02,.97-.13,1.42-.3l.4,.2m-2-.62l.21-.24c.3-.08,1.55-.42,2.73-.87-.9,.54-1.9,.92-2.94,1.11m4.41-2.67c-1.13,.75-2.37,1.31-3.68,1.66l.24-.38c1.15-.03,2.26-.47,3.11-1.25l.33-.03Zm.28-2.31h.11c-.82,.69-1.73,1.25-2.72,1.66l.07-.12c.93-.38,1.8-.9,2.57-1.54m-1-.8c.43-.44,.76-.83,.88-1l.28-.06c-.35,.38-.73,.71-1.16,1"/><path class="cls-2" d="M37.82,17.27c.12-.68,.47-1.3,1-1.74l-.9,3c-.25-.26-.1-1.29-.1-1.29"/><path class="cls-2" d="M38.46,19.6h-.16l-.3-.77,1-3.17c.92,2.85-.66,3.94-.66,3.94"/><path class="cls-2" d="M36.28,15.53c.52,.36,1.02,.77,1.49,1.2l-.17,1-1.32-2.2Z"/><path class="cls-2" d="M35.81,15.6l1.73,2.47c-1.62-.22-1.73-2.47-1.73-2.47"/><path class="cls-2" d="M37.73,18.56l.38,1.09c-.78-.37-1.46-.91-2-1.58l1.62,.49Z"/><path class="cls-2" d="M38.3,20.29s-2-.49-2.36-2c.66,.69,1.43,1.27,2.28,1.71l.08,.29Z"/><polygon class="cls-2" points="38.43 20.71 37.77 20.29 38.36 20.45 38.43 20.71"/><path class="cls-2" d="M38.51,22.13c-.85-.67-1.64-1.42-2.35-2.24,.78,.33,1.54,.7,2.28,1.11l.07,1.13Z"/><path class="cls-2" d="M38.6,23.37c-.88-.84-1.65-1.78-2.29-2.81,0,0,2,1.78,2.26,1.89l.03,.92Z"/><path class="cls-2" d="M38.67,24.27c-.96-.58-1.75-1.4-2.29-2.39,.39,.04,.75,.23,1,.54l1.26,1.19,.03,.66Z"/><path class="cls-2" d="M36.31,22.33c-.24-1.16,0,0,0,0,0,0,1.57,2.07,2.2,2.2l-.08,.85s-1.87-1.84-2.12-3"/><path class="cls-2" d="M36.41,23.37c.58,.8,1.25,1.52,2,2.16l-.19,.69c-.79-.82-1.41-1.79-1.83-2.85"/><path class="cls-2" d="M36.31,24.12c.51,.82,1.11,1.59,1.79,2.28l-.18,.6c-.71-.85-1.25-1.83-1.61-2.88"/><path class="cls-2" d="M36,25c.16,.1,.31,.22,.43,.37l1.41,1.89-.36,.85s-1.55-2.19-1.48-3.11"/><path class="cls-2" d="M35.87,25.9s.89,1.59,1.42,2.37l-.27,.59c-.46-.97-.85-1.97-1.15-3"/><path class="cls-2" d="M36.41,28.18c.12,.31,.26,.61,.43,.9-.16,.3-.34,.59-.53,.87-.29-.83-.47-1.69-.54-2.57,.31,.17,.54,.46,.64,.8"/><path class="cls-2" d="M36.2,30.15l-.44,.63c-.18-.94-.27-1.9-.26-2.86,0,0,.23,1.26,.34,1.56,0,0,.26,.73,.36,.67"/><path class="cls-2" d="M35.24,31.28c-.24-.74-.39-1.51-.46-2.28,.21,.13,.39,.31,.54,.51l.25,1.47-.33,.3Z"/><path class="cls-2" d="M34.83,31.74c-.23-.68-.34-1.4-.32-2.12l.55,1.85-.23,.27Z"/><path class="cls-2" d="M34.6,31.87l-.89,1c0-.78,.11-1.56,.29-2.32,.16,.45,.35,.9,.58,1.32"/><path class="cls-2" d="M32.74,33.82c.09-.93,.37-1.83,.8-2.65l-.1,2-.7,.65Z"/><path class="cls-2" d="M32.45,34.13l-.59,.41c.16-1.08,.43-2.13,.81-3.15,0,0,.07-.07,.24,.35-.23,.78-.38,1.58-.46,2.39"/><path class="cls-2" d="M31.61,34.68l-.76,.51c.22-1.1,.64-2.15,1.23-3.1-.28,.84-.44,1.71-.47,2.59"/><path class="cls-2" d="M30.16,35.64s.67-3.26,1.11-3c-.35,.84-.57,1.74-.64,2.65l-.47,.35Z"/><path class="cls-2" d="M29.85,35.75l-.52,.37c.26-1.1,.69-2.15,1.27-3.12-.42,.88-.67,1.82-.75,2.79"/><path class="cls-2" d="M28.69,36.52c0-.72,.19-1.43,.53-2.06l-.13,1.85-.4,.21Z"/><path class="cls-2" d="M28.4,36.65l-.6,.37c.15-.59,.38-1.16,.69-1.68l-.09,1.31Z"/><path class="cls-2" d="M28.5,35.34h0s.32-.29,0,0"/><path class="cls-2" d="M28,35.39c-.25,.54-.38,1.13-.41,1.72l-.42,.3c.05-.91,.36-1.78,.91-2.5,.03,.16,0,.33-.08,.48"/><path class="cls-2" d="M27.46,35.41c-.3,.67-.48,1.38-.53,2.11l-.24,.11-.1-.32c.15-.69,.45-1.34,.87-1.9"/><path class="cls-2" d="M38.43,19.82c.6-.62,1-1.4,1.15-2.25,.13-.09,.26-.17,.4-.24-.28,1.04-.75,2.02-1.38,2.89l-.17-.4Z"/><path class="cls-2" d="M38.67,21.1v-.6c.7-.66,1.2-1.5,1.44-2.43,.02,1.15-.52,2.24-1.44,2.93"/><path class="cls-2" d="M38.88,22.38v-1.05c.56-.41,1-.96,1.29-1.59-.13,.98-.58,1.88-1.29,2.57"/><path class="cls-2" d="M38.88,23.45v-.95c1.31-.7,1.64-2.95,1.64-2.95,.22,3.06-1.64,3.92-1.64,3.92"/><path class="cls-2" d="M38.91,23.79c.65-.41,1.17-.98,1.53-1.66,.18-.13,.42-.16,.63-.1-.59,1.04-1.35,1.97-2.25,2.76l.09-1Z"/><path class="cls-2" d="M38.51,25.9l.24-.85c.94-.64,1.73-1.47,2.32-2.44-.59,1.28-1.47,2.4-2.56,3.29"/><path class="cls-2" d="M38.3,26.51l.13-.29c.75-.58,1.42-1.25,2-2l.9-.19c-.79,1.05-1.82,1.89-3,2.45"/><path class="cls-2" d="M38,27.38l.19-.55s2.58-1.29,3-2.25c-.67,1.3-1.81,2.3-3.19,2.8"/><path class="cls-2" d="M41.18,26c-.93,1.25-3.72,2.33-3.72,2.33l.46-.75c.95-.39,1.84-.93,2.64-1.58h.62Z"/><path class="cls-2" d="M36.9,29.35l.46-.68c1.44-.36,2.75-1.09,3.82-2.11-.99,1.47-2.53,2.48-4.28,2.79"/><path class="cls-2" d="M36.14,30.55l.6-.93c2.38-.22,3.14-1.25,3.14-1.25l1-.1c-1.09,1.39-4.74,2.28-4.74,2.28"/><path class="cls-2" d="M36,30.78s3.68-.94,4.73-1.92c-1.41,1.5-3.32,2.44-5.37,2.65l.64-.73Z"/><path class="cls-2" d="M34.77,32.09l.4-.32c.8,0,1.6-.12,2.35-.39,.38,.23,.79,.39,1.23,.46,0,0-.94,.47-4,.25"/><path class="cls-2" d="M34.16,32.87c.15-.21,.31-.41,.5-.59,1.28,.19,2.57,.19,3.85,0-.71,.9-4.35,.59-4.35,.59"/><path class="cls-2" d="M33.12,33.55l.88-.71c1.17,.3,2.37,.43,3.58,.38,.19,.12,.39,.22,.6,.3-1.62,.89-5.06,0-5.06,0"/><path class="cls-2" d="M32.45,34.46l.46-.45c1.92,.58,5-.25,5-.25-1.54,1.25-3.66,1.52-5.47,.7"/><path class="cls-2" d="M31.76,34.91l.52-.37c.76,.43,1.62,.67,2.49,.71l.72,.55c-1.31,.22-2.66-.1-3.73-.89"/><path class="cls-2" d="M31,35.41l.56-.4c.48,.8,3.37,1.11,3.37,1.11-1.35,.34-2.78,.08-3.93-.71"/><path class="cls-2" d="M33.28,36.43c.25,.36,.6,.63,1,.8,0,0-2.63,.42-4.15-1.28l.69-.41c.71,.51,1.55,.82,2.43,.89"/><path class="cls-2" d="M29.42,36.41l.58-.31c1.52,1.63,4.45,1.31,4.45,1.31-1.72,.69-3.68,.29-5-1"/><path class="cls-2" d="M28.64,36.85l.58-.33c.62,.66,1.43,1.11,2.32,1.29l.54,.58s-2.48-.39-3.44-1.54"/><path class="cls-2" d="M30.43,38.15l.42,.35c-1,0-2.94-1.22-2.94-1.22l.54-.37c.63,.46,1.3,.88,2,1.24"/><path class="cls-2" d="M27.17,37.62c.65,.48,1.41,.79,2.21,.89,0,0-1.66-.71-1.87-1.17l-.34,.28Z"/><path class="cls-2" d="M26.86,37.79c.49,.44,1.12,.71,1.78,.77,0,0-1.95-.21-2-.77h.22Z"/><path class="cls-2" d="M31.56,22.1l-1.26-.83c.06-.29,.1-.58,.12-.88l1-.29-1-.23c-.01-.26-.05-.52-.1-.77l2.6-1.6-2.92,.5c-.12-.27-.27-.54-.45-.78l.62-.93-1,.47c-.17-.2-.36-.38-.57-.55l1.2-2.69-2.2,2c-.21-.1-.43-.19-.66-.26v-1.51l-.72,1.41c-.2-.03-.39-.06-.59-.07l-.63-3.09-.4,3.11c-.24,.04-.47,.09-.7,.16l-.85-1.39,.15,1.65c-.23,.1-.44,.22-.65,.36l-2.47-2.37,1.65,3c-.12,.12-.24,.25-.34,.39l-1.48-.37,.93,1.19c-.07,.13-.13,.27-.19,.4l-3.65-.52,3.31,1.75v.27l-2.1,.79,2.12,.41c.01,.12,.03,.24,.06,.36l-2.18,1.46,2.49-.35h0l.18,.36h0l-.52,1.34,1.12-.48c.11,.13,.22,.25,.34,.37l-.29,.49,.54-.27c2.15,1.81,5.35,1.53,7.16-.62l.04-.05,1.05,.43-.65-1c.14-.22,.26-.46,.36-.7l1.53-.07Z"/><path class="cls-1" d="M11,15.42l5,2.49s.11,3.93,4.83,6.11c0,0,2.14,1.26,2.84-.44,0,0,.47-1.8-1.3-1,0,0-.16-1.15,1.46-1.3,0,0,.35-1.06,1.85-.82,0,0,1.26,.29,1.37,2.45,.04,.79,.71,1.41,1.5,1.37,.2,0,.4-.06,.59-.15,0,0,4.72-1.8,4.86-6.13l5.12-2.91c-.53,1.85-1.46,3.56-2.74,5h1.75c-1.06,1.8-2.64,3.23-4.52,4.13l1.58,.44c-1.55,1.19-3.51,1.73-5.46,1.5l1,1.34-5.58,3.31-5.57-3.31,.83-1.06s-3.81,0-5.51-1.58l1.66-.64s-3.58-1.2-4.77-3.92h1.72c-1.25-1.38-2.11-3.06-2.51-4.88"/><path class="cls-3" d="M24.13,21.6s.09-.54,1.28-.44c0,0-.37,.05-.41,.13s.15,.34,0,.52c0,0-.27,.08-.58-.33-.09,.09-.19,.16-.29,.23v-.11Z"/><path class="cls-3" d="M33.53,30s-.1-.81-1.31-.81c0,0-1,.24-3.22-1.43,0,0-2.2-1.37-3.86-.17-1.66-1.2-3.87,.17-3.87,.17-2.2,1.67-3.22,1.43-3.22,1.43-1.21,0-1.3,.81-1.3,.81-.44,.5-.21,.74-.21,.74l3.64,5.75c1.36-1.08,3.12-1.51,4.82-1.16h.22c1.72-.36,3.51,.05,4.9,1.13l3.63-5.75s.23-.24-.2-.74"/><path class="cls-2" d="M29.23,28.11c.82,.66,1.81,1.1,2.85,1.25,1.31,0,1,.61,1,.61l-3.3,5.53c-2.78-1.79-4.58-1.12-4.58-1.12v-6.56c1.51-1.47,4,.29,4,.29m-3,2.41h-.43v.21h.43v-.21Zm5.28,.42l.09-.15-.56-.34v.15l.47,.34Zm-.95,1.55l.09-.15-.49-.34-.09,.15,.49,.34Zm0-2.23l.06-.16-.62-.22,.03,.12,.53,.26Zm-.86,3.61l.07-.15-.6-.26-.07,.15,.6,.26Zm-.09-2.06l.05-.16-.61-.22-.06,.16,.62,.22Zm-.23-2l.06-.16-.61-.23-.06,.16,.61,.23Zm-.68,3.51v-.16l-.5-.16v.16l.5,.16Zm-.27-2l.06-.16-.46-.16-.06,.16,.46,.16Zm-.1-2v-.17l-.63-.15v.17l.63,.15Zm-.76,3.68v-.17l-.64-.14v.17l.64,.14Zm-.09-2.09v-.17l-.64-.15v.17l.64,.15Zm-.25-1.71v-.16l-.63-.15v.16l.63,.15Zm-.75,3.52v-.16l-.65-.07v.17l.65,.06Zm-.82-3.95h.42v.23h-.42v-.23Z"/><path class="cls-3" d="M33.57,30.44l-3.57,5.67c-2.74-1.6-4.58-1.17-4.9-1.07-.33-.1-2.16-.53-4.91,1.07l-3.52-5.67h-.07l3.56,5.74h0c2.84-1.58,4.63-1.18,4.95-1.06h.06c.32-.1,2.13-.52,4.87,1.09h0l3.57-5.74-.04-.03Z"/><path class="cls-2" d="M20.3,35.9c1.45-.84,3.14-1.19,4.81-1h.06c1.67-.19,3.35,.16,4.8,1h0l3.46-5.68h-.07l-3.36,5.58h-.08l3.43-5.8h-.07l-3.46,5.77c-1.42-.8-3.06-1.12-4.68-.93-1.62-.19-3.26,.13-4.69,.93l-3.45-5.77h-.07l3.45,5.77h-.08l-3.42-5.61h-.08l3.47,5.68,.03,.06Z"/><path class="cls-3" d="M25.11,34.67h0c.2-.09,1.2-.44,3.51,.42v-.08c-2.32-.86-3.33-.53-3.57-.42-.25-.11-1.26-.44-3.57,.42v.08c2.3-.86,3.3-.51,3.51-.42"/><path class="cls-2" d="M21,28.11c-.82,.66-1.81,1.1-2.85,1.25-1.3,0-1,.61-1,.61l3.3,5.53c2.7-1.79,4.54-1.12,4.54-1.12v-6.56c-1.51-1.47-4,.29-4,.29m3,2.41h.43v.21h-.43v-.21Zm-5.18,.42l-.09-.15,.56-.34,.08,.15-.55,.34Zm.95,1.55l-.09-.15,.56-.34,.09,.15-.56,.34Zm0-2.23l-.06-.16,.61-.22,.06,.16-.61,.22Zm.85,3.61l-.06-.15,.59-.26,.07,.15-.6,.26Zm.1-2.06l-.06-.16,.61-.22,.06,.16-.61,.22Zm.22-2l-.06-.16,.62-.23,.05,.16-.61,.23Zm.69,3.51v-.16l.64-.14v.16l-.64,.14Zm.26-2l-.05-.16,.61-.23,.06,.16-.62,.23Zm.1-2v-.17l.64-.15v.17l-.64,.15Zm.75,3.68v-.17l.64-.14v.17l-.64,.14Zm.09-2.09v-.17l.63-.15v.17l-.63,.15Zm.26-1.71v-.16l.64-.15v.16l-.64,.15Zm.75,3.52v-.16l.65-.07v.17l-.65,.06Zm.94-3.95h-.43v.23h.43v-.23Z"/><path class="cls-3" d="M43.91,9.83l-5,4.18c8.01,7.61,8.34,20.27,.73,28.27-3.71,3.91-8.84,6.15-14.23,6.23-11.05-.12-19.9-9.17-19.78-20.22,.06-5.34,2.25-10.44,6.09-14.15l-5.11-4.05C-1.6,20.45,.14,35.5,10.5,43.71c10.36,8.21,25.41,6.47,33.62-3.89,6.98-8.81,6.89-21.28-.21-29.99"/><path class="cls-3" d="M44.25,10.34s5,5.7,4.83,15.56c-.16,2.06-.5,4.11-1,6.12-1.08,3.21-3.35,9.64-12.49,14.46,0,0,12-6.75,12.42-19.24,.1-4.17-.88-8.29-2.87-11.95l-.89-4.95Z"/><path class="cls-3" d="M39.44,14.68c5.76,5.46,5.9,13.77,5.9,13.77,.06,3.69-.94,7.33-2.89,10.47-3.61,6.01-10.1,9.7-17.11,9.71,4.23,.51,8.48-.69,11.82-3.33,5.39-3.59,8.83-9.48,9.3-15.94,.41-4.43-.62-8.87-2.93-12.67l-4.53-2.49,.44,.48Z"/><path class="cls-3" d="M5.61,28.7c.09,10.91,9.01,19.69,19.92,19.6,10.91-.09,19.69-9.01,19.6-19.92-.09-10.85-8.91-19.6-19.76-19.6-10.96,.05-19.8,8.96-19.76,19.92"/><path class="cls-3" d="M45.12,28.7c0,11-8.88,19.93-19.88,20-11.01,.03-19.97-8.87-20-19.88-.03-11.01,8.87-19.97,19.88-20,11.01-.03,19.97,8.87,20,19.88Z"/><path class="cls-3" d="M49.39,24.92c0,13.25-10.75,24-24,24S1.39,38.17,1.39,24.92,12.14,.92,25.39,.92s24,10.75,24,24Z"/><line class="cls-3" x1="45.13" y1="15.14" x2="43.57" y2="16.74"/><path class="cls-3" d="M26.55,48.87C13.21,49.38,1.97,38.98,1.46,25.64c-.04-1.08-.01-2.15,.09-3.23,.5-4.61,2.33-8.98,5.27-12.58"/><path class="cls-3" d="M16.56,46.43c3.1,1.53,6.55,2.22,10,2"/><path class="cls-3" d="M6.48,10.34S1.51,16,1.65,25.9c.16,2.06,.5,4.11,1,6.12,1.04,3.21,3.35,9.64,12.49,14.46,0,0-12-6.75-12.42-19.24-.1-4.17,.88-8.29,2.87-11.95l.89-4.95Z"/><path class="cls-3" d="M25.39,48.63c-4.23,.51-8.48-.69-11.82-3.33-5.39-3.59-8.83-9.48-9.3-15.94-.41-4.43,.62-8.87,2.93-12.67l4.57-2.49"/><line class="cls-3" x1="5.6" y1="15.14" x2="7.16" y2="16.74"/><g><path class="cls-1" d="M12.98,41.84l.03,.26h.25l.04,.47h-.36l-.03-.26h-.26l-.05-.48h.37Zm2.36,.32l-.44-.4-.07,.03-.27,.12-.28,.1-.06,.02s-.1-.02-.16-.03c-.07-.01-.13-.03-.2-.06-.11-.04-.22-.08-.31-.13-.1-.05-.18-.11-.25-.17-.13-.12-.2-.27-.2-.45,0-.18,.06-.35,.19-.49,.17-.19,.45-.36,.86-.53l-.04,.03c-.07,.05-.13,.1-.18,.14-.05,.04-.1,.09-.14,.14-.14,.16-.22,.3-.23,.44,0,.06,.01,.13,.04,.2,.03,.07,.08,.13,.13,.18,.1,.09,.23,.15,.4,.19,.06,.02,.12,.03,.18,.03,.04,0,.08,0,.14,0-.03-.1-.07-.19-.11-.26-.05-.08-.12-.16-.22-.25l.55-.23,1.05,.96-.38,.41Z"/><path class="cls-1" d="M15.33,42.12l.33-.45,.56,.41,.08-.22,.47-.08-.2,.55,.43,.31-.33,.45-.64-.46,.05-.17-.2,.06-.55-.4Zm1.55-.67l-.11-.47,.37-.05,.1,.47-.36,.05Z"/><path class="cls-1" d="M18.08,42.83h.11c.08-.02,.17-.02,.26-.03,.07,0,.18,0,.34,0,.08,0,.14,0,.19,0,.05,0,.08,.02,.11,.03,.04,.02,.07,.05,.11,.1,.04,.04,.07,.09,.1,.15,.06,.12,.09,.24,.1,.35,.01,.12,0,.21-.04,.28-.02,.04-.05,.07-.08,.11-.03,.04-.1,.09-.19,.17-.09,.08-.16,.13-.2,.16-.04,.03-.1,.06-.16,.1l-2.08-1.15,.27-.49,.48,.27h.2l.07-.02,.44-1.02c-.05-.06-.07-.11-.04-.16,.02-.03,.05-.06,.12-.09l.33-.17c-.03,.06-.05,.11-.04,.14,0,.03,.04,.08,.09,.16l.07,.09,.13,.16-.33,.26-.05-.06-.16,.33-.05,.09c-.03,.05-.06,.09-.09,.13-.03,.03-.06,.07-.11,.1h.1Zm.79,.53c-.05-.12-.11-.21-.19-.25-.03-.02-.07-.03-.11-.03-.04,0-.1,0-.19,0h-.26c-.07,0-.19,.02-.34,.03l1.13,.62c0-.12,0-.25-.05-.37Z"/><path class="cls-1" d="M20.89,45.14l-.54-.21h0c-.07,.12-.16,.22-.27,.31-.1,.09-.22,.16-.34,.22-.13,.06-.23,.07-.31,.04-.06-.02-.12-.09-.18-.21-.03-.07-.06-.13-.07-.18-.02-.06-.04-.14-.06-.26v-.05l.02,.02c.09,.06,.16,.1,.22,.13,.13,.05,.26,.06,.39,.03,.07-.02,.12-.04,.17-.06,.04-.02,.09-.06,.14-.11l-.2-.08c-.11-.05-.19-.08-.23-.1-.04-.02-.08-.06-.12-.1-.04-.04-.06-.1-.07-.17-.01-.07,0-.14,.02-.2,.06-.15,.18-.3,.36-.46,.04-.03,.08-.07,.13-.1,.05-.03,.09-.06,.14-.09,.12-.07,.22-.08,.3-.05,.1,.04,.17,.16,.21,.35,.04,.19,.03,.39-.02,.6,0,0,.53,.21,.53,.21l-.2,.52Zm-.73-1.25s-.09-.01-.14,.01c-.05,.03-.09,.07-.11,.12-.03,.08,0,.14,.1,.17l.1,.04,.14,.05c.05-.22,.02-.35-.08-.39Z"/><path class="cls-1" d="M22.36,43.89l-.06-.05-.13,.58-.02,.12-.02,.09v.02c-.02,.05-.04,.09-.05,.13-.01,.04-.04,.07-.07,.12l-.14,.2c-.05,.07-.1,.13-.12,.17,0,0-.03,.04-.08,.09l-.82-.24,.16-.53,.69,.2,.26-1.22h-.02c-.05-.05-.07-.1-.06-.14,0-.03,.03-.06,.06-.08l.06-.05,.26-.22s-.02,.06-.02,.07c0,.02,0,.04,0,.06,0,.03,.02,.05,.05,.07l.06,.06,.27,.23-.27,.33Z"/><path class="cls-1" d="M23.24,44.01l-.1,.07v.04l-.05,.27c0,.05-.02,.12-.04,.2-.02,.08-.03,.14-.03,.18-.06,.24-.13,.43-.22,.56-.09,.13-.23,.25-.42,.37,.01-.05,.03-.11,.05-.17,.02-.07,.03-.13,.05-.18,.01-.04,.02-.11,.04-.21,.02-.09,.03-.16,.04-.21l.1-.6,.08-.47v-.08l.56-.43-.05,.65Z"/><path class="cls-1" d="M26.25,46.11l-.55-.05-.09,.27-.1,.23c-.16,.09-.31,.15-.47,.19-.15,.04-.3,.06-.43,.05-.18-.02-.33-.1-.45-.24s-.16-.32-.14-.51c.02-.25,.15-.57,.36-.95-.06,.22-.09,.4-.11,.55-.02,.18,.01,.32,.09,.43,.08,.11,.2,.17,.36,.19,.11,.01,.22,0,.35-.05,.12-.04,.24-.1,.36-.19,0-.12-.03-.26-.08-.4-.04-.15-.1-.27-.16-.36l.35-.35c.09,.17,.15,.36,.18,.59,0-.01,.56,.05,.56,.05l-.05,.55Zm-1.35-1.17l-.33-.35,.29-.23,.33,.35-.28,.22Z"/><path class="cls-1" d="M26.76,45.53l.03-.05,.17-.25c.12-.17,.19-.28,.23-.33,.04-.05,.1-.11,.16-.17,.07-.07,.14-.11,.21-.12,.06,0,.12,.02,.19,.07,.07,.05,.13,.12,.18,.21,.05,.09,.1,.2,.15,.32,.04,.12,.07,.21,.07,.28,0,.06-.03,.16-.08,.28-.03,.07-.07,.15-.12,.24-.03,.06-.08,.14-.12,.23l-.96-.39-.14,.23h-.49v-.54h.52Zm.94-.28c-.06-.11-.13-.16-.2-.16-.02,0-.03,0-.03,0h-.02s-.04,.04-.07,.07c-.04,.04-.07,.07-.09,.1l-.06,.08-.02,.02,.6,.24c0-.14-.04-.26-.09-.37Z"/><path class="cls-1" d="M28.82,43.33c-.06,.01-.11,.02-.15,.03-.04,0-.08,.02-.12,.04-.07,.03-.12,.06-.16,.1-.04,.04-.09,.09-.14,.16,0-.12,.04-.23,.1-.32-.11-.02-.17-.08-.18-.18,0-.05,.02-.12,.06-.22,.05-.1,.1-.17,.16-.21,.06-.04,.13-.07,.22-.08,.11,0,.16,.01,.17,.06,0,.01,0,.03-.02,.06v.04l-.06,.11s-.05-.02-.08-.02c-.03,0-.06,0-.09,0-.04,0-.08,.01-.12,.03-.04,.02-.08,.04-.1,.08,.04,.04,.1,.07,.17,.09,.07,.02,.14,.03,.21,.02,.03,0,.06,0,.08-.01,.02,0,.06-.02,.1-.04l-.06,.25Z"/><path class="cls-1" d="M29.93,44.28l-.07-.04c-.03,.07-.07,.16-.13,.25-.06,.1-.12,.19-.19,.29l.23,.24,.04,.04,.06,.07s.05,.07,.06,.1c0,.05,0,.13-.03,.24l-.02,.07-.06,.3-1.18,.17v-.6l.06-.07,.19-.22s.06-.07,.08-.11c.02-.02,.04-.06,.08-.12l.03-.03-.06-.04-.16-.12-.22-.14-.02,.03s-.05,.06-.07,.06c-.02,0-.03,0-.04-.01-.01,0-.05-.04-.09-.07-.08-.08-.13-.13-.15-.17-.03-.03-.04-.07-.05-.1,0-.05,0-.13,.03-.24,.02-.08,.05-.15,.08-.21,.02-.03,.04-.05,.06-.05,.03,0,.07,.01,.12,.04,.06,.04,.15,.11,.24,.19,.1,.08,.17,.15,.23,.21,.09,.09,.17,.18,.25,.25l.04,.04s.05-.08,.06-.11c.01-.03,.04-.09,.07-.17,.02-.06,.04-.1,.04-.12,0-.02,0-.05,.01-.1-.03-.02-.06-.04-.07-.06-.01-.02-.02-.04-.03-.06,0-.04,.02-.09,.06-.15l.06-.09,.17-.22v.08c0,.06,.06,.12,.14,.17l.34,.19-.21,.39Zm-.6,.78l-.02,.03-.11,.13s-.05,.06-.08,.09c-.03,.03-.05,.05-.08,.08l.57-.08-.27-.25Z"/><path class="cls-1" d="M30.81,43.9l-.06,.11v.04l.09,.26s.03,.12,.05,.2c.02,.08,.04,.14,.05,.17,.06,.24,.07,.44,.05,.6-.02,.16-.09,.33-.21,.52,0-.05-.02-.11-.03-.17-.01-.07-.03-.13-.04-.18-.01-.04-.03-.11-.05-.21-.02-.09-.04-.16-.05-.2l-.17-.59-.14-.45-.02-.07,.31-.63,.24,.6Z"/><path class="cls-1" d="M32.82,42.9l-.24-.09-.11,.22-.44-.18,.16-.32,.25,.09,.12-.23,.45,.18-.18,.33Zm1.45,1.64l-.83,.31-.18-.29-.06,.3-.9,.19-.03-.6c0-.09,.02-.16,.07-.22l.41-.47-.05-.08,.24-.45,.61,.97,.51-.19,.19,.52Zm-1.35-.52l-.34,.4,.53-.11-.18-.29Z"/><path class="cls-1" d="M34.22,44.54l-.25-.5,.62-.31-.16-.17,.15-.45,.39,.43,.47-.23,.25,.5-.71,.35-.12-.13-.04,.21-.61,.3Zm.7,.04l.25,.06,.09-.23,.45,.14-.13,.34-.25-.07-.1,.24-.46-.13,.14-.35Z"/><path class="cls-1" d="M37,43.03l-.64,.38c-.07,.04-.12,.07-.16,.08-.06,.02-.11,0-.15-.05v.16l-.4,.23-.29-.48,.47-.28-.67-1.12,.13-.64,.8,1.33,.07,.12s.04,.05,.06,.05c.02,0,.05,0,.09-.03l.05-.03,.35-.21,.29,.48Z"/><path class="cls-1" d="M37.56,40.3l-.62,.78,1.1,.21,.13,.03c.05,.01,.09,.03,.1,.05l.02,.03v.07l.03,.1,.08,.42-1.42,1.07-.33-.45,1.18-.88-.77-.16v.09l-.25-.03h-.05c-.05,0-.08-.03-.1-.06l-.02-.04v-.04l-.02-.04-.12-.52,.96-1.19,.11,.54Z"/></g></svg>